<svg width="1363" height="163" viewBox="0 0 1363 163" fill="none" xmlns="http://www.w3.org/2000/svg">
<path d="M0 15C0 6.71573 6.71573 0 15 0H37V163H15C6.71573 163 0 156.284 0 148V15Z" fill="#424242"/>
<rect width="1097" height="163" transform="translate(37)" fill="#F0F0F0"/>
<path d="M101.906 53.9219L94.3945 51.2383V48.0859L104.602 52.375V54.6367L101.906 53.9219ZM94.3945 56.1719L101.918 53.4297L104.602 52.7852V55.0352L94.3945 59.3242V56.1719ZM122.789 55.3398H126.293C126.223 56.4883 125.906 57.5078 125.344 58.3984C124.789 59.2891 124.012 59.9844 123.012 60.4844C122.02 60.9844 120.824 61.2344 119.426 61.2344C118.332 61.2344 117.352 61.0469 116.484 60.6719C115.617 60.2891 114.875 59.7422 114.258 59.0312C113.648 58.3203 113.184 57.4609 112.863 56.4531C112.543 55.4453 112.383 54.3164 112.383 53.0664V51.8828C112.383 50.6328 112.547 49.5039 112.875 48.4961C113.211 47.4805 113.688 46.6172 114.305 45.9062C114.93 45.1953 115.676 44.6484 116.543 44.2656C117.41 43.8828 118.379 43.6914 119.449 43.6914C120.871 43.6914 122.07 43.9492 123.047 44.4648C124.031 44.9805 124.793 45.6914 125.332 46.5977C125.879 47.5039 126.207 48.5352 126.316 49.6914H122.801C122.762 49.0039 122.625 48.4219 122.391 47.9453C122.156 47.4609 121.801 47.0977 121.324 46.8555C120.855 46.6055 120.23 46.4805 119.449 46.4805C118.863 46.4805 118.352 46.5898 117.914 46.8086C117.477 47.0273 117.109 47.3594 116.812 47.8047C116.516 48.25 116.293 48.8125 116.145 49.4922C116.004 50.1641 115.934 50.9531 115.934 51.8594V53.0664C115.934 53.9492 116 54.7266 116.133 55.3984C116.266 56.0625 116.469 56.625 116.742 57.0859C117.023 57.5391 117.383 57.8828 117.82 58.1172C118.266 58.3438 118.801 58.457 119.426 58.457C120.16 58.457 120.766 58.3398 121.242 58.1055C121.719 57.8711 122.082 57.5234 122.332 57.0625C122.59 56.6016 122.742 56.0273 122.789 55.3398ZM127.852 54.7891V54.543C127.852 53.6133 127.984 52.7578 128.25 51.9766C128.516 51.1875 128.902 50.5039 129.41 49.9258C129.918 49.3477 130.543 48.8984 131.285 48.5781C132.027 48.25 132.879 48.0859 133.84 48.0859C134.801 48.0859 135.656 48.25 136.406 48.5781C137.156 48.8984 137.785 49.3477 138.293 49.9258C138.809 50.5039 139.199 51.1875 139.465 51.9766C139.73 52.7578 139.863 53.6133 139.863 54.543V54.7891C139.863 55.7109 139.73 56.5664 139.465 57.3555C139.199 58.1367 138.809 58.8203 138.293 59.4062C137.785 59.9844 137.16 60.4336 136.418 60.7539C135.676 61.0742 134.824 61.2344 133.863 61.2344C132.902 61.2344 132.047 61.0742 131.297 60.7539C130.555 60.4336 129.926 59.9844 129.41 59.4062C128.902 58.8203 128.516 58.1367 128.25 57.3555C127.984 56.5664 127.852 55.7109 127.852 54.7891ZM131.227 54.543V54.7891C131.227 55.3203 131.273 55.8164 131.367 56.2773C131.461 56.7383 131.609 57.1445 131.812 57.4961C132.023 57.8398 132.297 58.1094 132.633 58.3047C132.969 58.5 133.379 58.5977 133.863 58.5977C134.332 58.5977 134.734 58.5 135.07 58.3047C135.406 58.1094 135.676 57.8398 135.879 57.4961C136.082 57.1445 136.23 56.7383 136.324 56.2773C136.426 55.8164 136.477 55.3203 136.477 54.7891V54.543C136.477 54.0273 136.426 53.543 136.324 53.0898C136.23 52.6289 136.078 52.2227 135.867 51.8711C135.664 51.5117 135.395 51.2305 135.059 51.0273C134.723 50.8242 134.316 50.7227 133.84 50.7227C133.363 50.7227 132.957 50.8242 132.621 51.0273C132.293 51.2305 132.023 51.5117 131.812 51.8711C131.609 52.2227 131.461 52.6289 131.367 53.0898C131.273 53.543 131.227 54.0273 131.227 54.543ZM149.965 48.3203H153.023V60.5781C153.023 61.7344 152.766 62.7148 152.25 63.5195C151.742 64.332 151.031 64.9453 150.117 65.3594C149.203 65.7812 148.141 65.9922 146.93 65.9922C146.398 65.9922 145.836 65.9219 145.242 65.7812C144.656 65.6406 144.094 65.4219 143.555 65.125C143.023 64.8281 142.578 64.4531 142.219 64L143.707 62.0078C144.098 62.4609 144.551 62.8125 145.066 63.0625C145.582 63.3203 146.152 63.4492 146.777 63.4492C147.387 63.4492 147.902 63.3359 148.324 63.1094C148.746 62.8906 149.07 62.5664 149.297 62.1367C149.523 61.7148 149.637 61.2031 149.637 60.6016V51.25L149.965 48.3203ZM141.434 54.8125V54.5664C141.434 53.5977 141.551 52.7188 141.785 51.9297C142.027 51.1328 142.367 50.4492 142.805 49.8789C143.25 49.3086 143.789 48.8672 144.422 48.5547C145.055 48.2422 145.77 48.0859 146.566 48.0859C147.41 48.0859 148.117 48.2422 148.688 48.5547C149.258 48.8672 149.727 49.3125 150.094 49.8906C150.461 50.4609 150.746 51.1367 150.949 51.918C151.16 52.6914 151.324 53.5391 151.441 54.4609V55C151.324 55.8828 151.148 56.7031 150.914 57.4609C150.68 58.2188 150.371 58.8828 149.988 59.4531C149.605 60.0156 149.129 60.4531 148.559 60.7656C147.996 61.0781 147.324 61.2344 146.543 61.2344C145.762 61.2344 145.055 61.0742 144.422 60.7539C143.797 60.4336 143.262 59.9844 142.816 59.4062C142.371 58.8281 142.027 58.1484 141.785 57.3672C141.551 56.5859 141.434 55.7344 141.434 54.8125ZM144.809 54.5664V54.8125C144.809 55.3359 144.859 55.8242 144.961 56.2773C145.062 56.7305 145.219 57.1328 145.43 57.4844C145.648 57.8281 145.918 58.0977 146.238 58.293C146.566 58.4805 146.953 58.5742 147.398 58.5742C148.016 58.5742 148.52 58.4453 148.91 58.1875C149.301 57.9219 149.594 57.5586 149.789 57.0977C149.984 56.6367 150.098 56.1055 150.129 55.5039V53.9688C150.113 53.4766 150.047 53.0352 149.93 52.6445C149.812 52.2461 149.648 51.9062 149.438 51.625C149.227 51.3438 148.953 51.125 148.617 50.9688C148.281 50.8125 147.883 50.7344 147.422 50.7344C146.977 50.7344 146.59 50.8359 146.262 51.0391C145.941 51.2344 145.672 51.5039 145.453 51.8477C145.242 52.1914 145.082 52.5977 144.973 53.0664C144.863 53.5273 144.809 54.0273 144.809 54.5664ZM158.953 51.0273V61H155.578V48.3203H158.742L158.953 51.0273ZM158.461 54.2148H157.547C157.547 53.2773 157.668 52.4336 157.91 51.6836C158.152 50.9258 158.492 50.2812 158.93 49.75C159.367 49.2109 159.887 48.8008 160.488 48.5195C161.098 48.2305 161.777 48.0859 162.527 48.0859C163.121 48.0859 163.664 48.1719 164.156 48.3438C164.648 48.5156 165.07 48.7891 165.422 49.1641C165.781 49.5391 166.055 50.0352 166.242 50.6523C166.438 51.2695 166.535 52.0234 166.535 52.9141V61H163.137V52.9023C163.137 52.3398 163.059 51.9023 162.902 51.5898C162.746 51.2773 162.516 51.0586 162.211 50.9336C161.914 50.8008 161.547 50.7344 161.109 50.7344C160.656 50.7344 160.262 50.8242 159.926 51.0039C159.598 51.1836 159.324 51.4336 159.105 51.7539C158.895 52.0664 158.734 52.4336 158.625 52.8555C158.516 53.2773 158.461 53.7305 158.461 54.2148ZM172.664 48.3203V61H169.277V48.3203H172.664ZM169.066 45.0156C169.066 44.5234 169.238 44.1172 169.582 43.7969C169.926 43.4766 170.387 43.3164 170.965 43.3164C171.535 43.3164 171.992 43.4766 172.336 43.7969C172.688 44.1172 172.863 44.5234 172.863 45.0156C172.863 45.5078 172.688 45.9141 172.336 46.2344C171.992 46.5547 171.535 46.7148 170.965 46.7148C170.387 46.7148 169.926 46.5547 169.582 46.2344C169.238 45.9141 169.066 45.5078 169.066 45.0156ZM179.754 61H176.355V47.1953C176.355 46.2344 176.543 45.4258 176.918 44.7695C177.301 44.1055 177.836 43.6055 178.523 43.2695C179.219 42.9258 180.043 42.7539 180.996 42.7539C181.309 42.7539 181.609 42.7773 181.898 42.8242C182.188 42.8633 182.469 42.9141 182.742 42.9766L182.707 45.5195C182.559 45.4805 182.402 45.4531 182.238 45.4375C182.074 45.4219 181.883 45.4141 181.664 45.4141C181.258 45.4141 180.91 45.4844 180.621 45.625C180.34 45.7578 180.125 45.957 179.977 46.2227C179.828 46.4883 179.754 46.8125 179.754 47.1953V61ZM182.285 48.3203V50.7109H174.469V48.3203H182.285ZM187.816 59.5703L191.18 48.3203H194.801L189.703 62.9102C189.594 63.2305 189.445 63.5742 189.258 63.9414C189.078 64.3086 188.832 64.6562 188.52 64.9844C188.215 65.3203 187.828 65.5938 187.359 65.8047C186.898 66.0156 186.332 66.1211 185.66 66.1211C185.34 66.1211 185.078 66.1016 184.875 66.0625C184.672 66.0234 184.43 65.9688 184.148 65.8984V63.4258C184.234 63.4258 184.324 63.4258 184.418 63.4258C184.512 63.4336 184.602 63.4375 184.688 63.4375C185.133 63.4375 185.496 63.3867 185.777 63.2852C186.059 63.1836 186.285 63.0273 186.457 62.8164C186.629 62.6133 186.766 62.3477 186.867 62.0195L187.816 59.5703ZM186.41 48.3203L189.164 57.5078L189.645 61.082L187.348 61.3281L182.789 48.3203H186.41ZM207.809 58.2578V61H198.727V58.2578H207.809ZM199.875 43.9375V61H196.359V43.9375H199.875ZM206.625 50.8867V53.5586H198.727V50.8867H206.625ZM207.797 43.9375V46.6914H198.727V43.9375H207.797ZM216.902 58.2344V43H220.301V61H217.242L216.902 58.2344ZM208.887 54.8125V54.5664C208.887 53.5977 208.996 52.7188 209.215 51.9297C209.434 51.1328 209.754 50.4492 210.176 49.8789C210.598 49.3086 211.117 48.8672 211.734 48.5547C212.352 48.2422 213.055 48.0859 213.844 48.0859C214.586 48.0859 215.234 48.2422 215.789 48.5547C216.352 48.8672 216.828 49.3125 217.219 49.8906C217.617 50.4609 217.938 51.1367 218.18 51.918C218.422 52.6914 218.598 53.5391 218.707 54.4609V55C218.598 55.8828 218.422 56.7031 218.18 57.4609C217.938 58.2188 217.617 58.8828 217.219 59.4531C216.828 60.0156 216.352 60.4531 215.789 60.7656C215.227 61.0781 214.57 61.2344 213.82 61.2344C213.031 61.2344 212.328 61.0742 211.711 60.7539C211.102 60.4336 210.586 59.9844 210.164 59.4062C209.75 58.8281 209.434 58.1484 209.215 57.3672C208.996 56.5859 208.887 55.7344 208.887 54.8125ZM212.262 54.5664V54.8125C212.262 55.3359 212.301 55.8242 212.379 56.2773C212.465 56.7305 212.602 57.1328 212.789 57.4844C212.984 57.8281 213.234 58.0977 213.539 58.293C213.852 58.4805 214.23 58.5742 214.676 58.5742C215.254 58.5742 215.73 58.4453 216.105 58.1875C216.48 57.9219 216.766 57.5586 216.961 57.0977C217.164 56.6367 217.281 56.1055 217.312 55.5039V53.9688C217.289 53.4766 217.219 53.0352 217.102 52.6445C216.992 52.2461 216.828 51.9062 216.609 51.625C216.398 51.3438 216.133 51.125 215.812 50.9688C215.5 50.8125 215.129 50.7344 214.699 50.7344C214.262 50.7344 213.887 50.8359 213.574 51.0391C213.262 51.2344 213.008 51.5039 212.812 51.8477C212.625 52.1914 212.484 52.5977 212.391 53.0664C212.305 53.5273 212.262 54.0273 212.262 54.5664ZM230.438 57.9648V48.3203H233.812V61H230.637L230.438 57.9648ZM230.812 55.3633L231.809 55.3398C231.809 56.1836 231.711 56.9688 231.516 57.6953C231.32 58.4141 231.027 59.0391 230.637 59.5703C230.246 60.0938 229.754 60.5039 229.16 60.8008C228.566 61.0898 227.867 61.2344 227.062 61.2344C226.445 61.2344 225.875 61.1484 225.352 60.9766C224.836 60.7969 224.391 60.5195 224.016 60.1445C223.648 59.7617 223.359 59.2734 223.148 58.6797C222.945 58.0781 222.844 57.3555 222.844 56.5117V48.3203H226.219V56.5352C226.219 56.9102 226.262 57.2266 226.348 57.4844C226.441 57.7422 226.57 57.9531 226.734 58.1172C226.898 58.2812 227.09 58.3984 227.309 58.4688C227.535 58.5391 227.785 58.5742 228.059 58.5742C228.754 58.5742 229.301 58.4336 229.699 58.1523C230.105 57.8711 230.391 57.4883 230.555 57.0039C230.727 56.5117 230.812 55.9648 230.812 55.3633Z" fill="#888888"/>
<path d="M114.117 84.875H122.344V107.164C122.344 109.82 121.789 112.07 120.68 113.914C119.57 115.742 118.016 117.125 116.016 118.062C114.016 119 111.664 119.469 108.961 119.469C106.289 119.469 103.938 119 101.906 118.062C99.8906 117.125 98.3125 115.742 97.1719 113.914C96.0469 112.07 95.4844 109.82 95.4844 107.164V84.875H103.734V107.164C103.734 108.57 103.938 109.719 104.344 110.609C104.75 111.484 105.344 112.125 106.125 112.531C106.906 112.938 107.852 113.141 108.961 113.141C110.086 113.141 111.031 112.938 111.797 112.531C112.562 112.125 113.141 111.484 113.531 110.609C113.922 109.719 114.117 108.57 114.117 107.164V84.875ZM136.266 84.875V119H128.062V84.875H136.266ZM172.523 84.875H180.75V107.164C180.75 109.82 180.195 112.07 179.086 113.914C177.977 115.742 176.422 117.125 174.422 118.062C172.422 119 170.07 119.469 167.367 119.469C164.695 119.469 162.344 119 160.312 118.062C158.297 117.125 156.719 115.742 155.578 113.914C154.453 112.07 153.891 109.82 153.891 107.164V84.875H162.141V107.164C162.141 108.57 162.344 109.719 162.75 110.609C163.156 111.484 163.75 112.125 164.531 112.531C165.312 112.938 166.258 113.141 167.367 113.141C168.492 113.141 169.438 112.938 170.203 112.531C170.969 112.125 171.547 111.484 171.938 110.609C172.328 109.719 172.523 108.57 172.523 107.164V84.875ZM193.078 84.875L198.656 96.2188L204.234 84.875H213.609L204.094 101.797L213.867 119H204.398L198.656 107.445L192.914 119H183.422L193.219 101.797L183.68 84.875H193.078Z" fill="black"/>
<path d="M1134 0H1348C1356.28 0 1363 6.71573 1363 15V148C1363 156.284 1356.28 163 1348 163H1134V0Z" fill="#11DAE6"/>
<path d="M1248.5 111.917C1244.51 111.917 1240.55 111.13 1236.86 109.601C1233.17 108.073 1229.82 105.832 1226.99 103.008C1221.29 97.3036 1218.08 89.567 1218.08 81.5C1218.08 73.433 1221.29 65.6964 1226.99 59.9922C1232.7 54.2879 1240.43 51.0833 1248.5 51.0833C1265.23 51.0833 1278.92 63.25 1278.92 78.4583C1278.92 83.2985 1276.99 87.9405 1273.57 91.363C1270.15 94.7856 1265.51 96.7083 1260.67 96.7083H1255.19C1254.28 96.7083 1253.67 97.3167 1253.67 98.2292C1253.67 98.5333 1253.97 98.8375 1253.97 99.1417C1255.19 100.662 1255.8 102.487 1255.8 104.312C1256.1 108.571 1252.76 111.917 1248.5 111.917ZM1248.5 57.1667C1242.05 57.1667 1235.86 59.7303 1231.29 64.2937C1226.73 68.8571 1224.17 75.0464 1224.17 81.5C1224.17 87.9536 1226.73 94.1429 1231.29 98.7063C1235.86 103.27 1242.05 105.833 1248.5 105.833C1249.41 105.833 1250.02 105.225 1250.02 104.312C1250.02 103.704 1249.72 103.4 1249.72 103.096C1248.5 101.575 1247.89 100.054 1247.89 98.2292C1247.89 93.9708 1251.24 90.625 1255.5 90.625H1260.67C1263.89 90.625 1266.99 89.3432 1269.27 87.0615C1271.55 84.7798 1272.83 81.6851 1272.83 78.4583C1272.83 66.5958 1261.88 57.1667 1248.5 57.1667ZM1231.77 75.4167C1234.2 75.4167 1236.33 77.5458 1236.33 79.9792C1236.33 82.4125 1234.2 84.5417 1231.77 84.5417C1229.34 84.5417 1227.21 82.4125 1227.21 79.9792C1227.21 77.5458 1229.34 75.4167 1231.77 75.4167ZM1240.9 63.25C1243.33 63.25 1245.46 65.3792 1245.46 67.8125C1245.46 70.2458 1243.33 72.375 1240.9 72.375C1238.46 72.375 1236.33 70.2458 1236.33 67.8125C1236.33 65.3792 1238.46 63.25 1240.9 63.25ZM1256.1 63.25C1258.54 63.25 1260.67 65.3792 1260.67 67.8125C1260.67 70.2458 1258.54 72.375 1256.1 72.375C1253.67 72.375 1251.54 70.2458 1251.54 67.8125C1251.54 65.3792 1253.67 63.25 1256.1 63.25ZM1265.23 75.4167C1267.66 75.4167 1269.79 77.5458 1269.79 79.9792C1269.79 82.4125 1267.66 84.5417 1265.23 84.5417C1262.8 84.5417 1260.67 82.4125 1260.67 79.9792C1260.67 77.5458 1262.8 75.4167 1265.23 75.4167Z" fill="white"/>
</svg>
