<svg width="1363" height="163" viewBox="0 0 1363 163" fill="none" xmlns="http://www.w3.org/2000/svg">
<path d="M0 15C0 6.71573 6.71573 0 15 0H37V163H15C6.71573 163 0 156.284 0 148V15Z" fill="#424242"/>
<rect width="1097" height="163" transform="translate(37)" fill="#F0F0F0"/>
<path d="M101.906 53.9219L94.3945 51.2383V48.0859L104.602 52.375V54.6367L101.906 53.9219ZM94.3945 56.1719L101.918 53.4297L104.602 52.7852V55.0352L94.3945 59.3242V56.1719ZM122.789 55.3398H126.293C126.223 56.4883 125.906 57.5078 125.344 58.3984C124.789 59.2891 124.012 59.9844 123.012 60.4844C122.02 60.9844 120.824 61.2344 119.426 61.2344C118.332 61.2344 117.352 61.0469 116.484 60.6719C115.617 60.2891 114.875 59.7422 114.258 59.0312C113.648 58.3203 113.184 57.4609 112.863 56.4531C112.543 55.4453 112.383 54.3164 112.383 53.0664V51.8828C112.383 50.6328 112.547 49.5039 112.875 48.4961C113.211 47.4805 113.688 46.6172 114.305 45.9062C114.93 45.1953 115.676 44.6484 116.543 44.2656C117.41 43.8828 118.379 43.6914 119.449 43.6914C120.871 43.6914 122.07 43.9492 123.047 44.4648C124.031 44.9805 124.793 45.6914 125.332 46.5977C125.879 47.5039 126.207 48.5352 126.316 49.6914H122.801C122.762 49.0039 122.625 48.4219 122.391 47.9453C122.156 47.4609 121.801 47.0977 121.324 46.8555C120.855 46.6055 120.23 46.4805 119.449 46.4805C118.863 46.4805 118.352 46.5898 117.914 46.8086C117.477 47.0273 117.109 47.3594 116.812 47.8047C116.516 48.25 116.293 48.8125 116.145 49.4922C116.004 50.1641 115.934 50.9531 115.934 51.8594V53.0664C115.934 53.9492 116 54.7266 116.133 55.3984C116.266 56.0625 116.469 56.625 116.742 57.0859C117.023 57.5391 117.383 57.8828 117.82 58.1172C118.266 58.3438 118.801 58.457 119.426 58.457C120.16 58.457 120.766 58.3398 121.242 58.1055C121.719 57.8711 122.082 57.5234 122.332 57.0625C122.59 56.6016 122.742 56.0273 122.789 55.3398ZM127.852 54.7891V54.543C127.852 53.6133 127.984 52.7578 128.25 51.9766C128.516 51.1875 128.902 50.5039 129.41 49.9258C129.918 49.3477 130.543 48.8984 131.285 48.5781C132.027 48.25 132.879 48.0859 133.84 48.0859C134.801 48.0859 135.656 48.25 136.406 48.5781C137.156 48.8984 137.785 49.3477 138.293 49.9258C138.809 50.5039 139.199 51.1875 139.465 51.9766C139.73 52.7578 139.863 53.6133 139.863 54.543V54.7891C139.863 55.7109 139.73 56.5664 139.465 57.3555C139.199 58.1367 138.809 58.8203 138.293 59.4062C137.785 59.9844 137.16 60.4336 136.418 60.7539C135.676 61.0742 134.824 61.2344 133.863 61.2344C132.902 61.2344 132.047 61.0742 131.297 60.7539C130.555 60.4336 129.926 59.9844 129.41 59.4062C128.902 58.8203 128.516 58.1367 128.25 57.3555C127.984 56.5664 127.852 55.7109 127.852 54.7891ZM131.227 54.543V54.7891C131.227 55.3203 131.273 55.8164 131.367 56.2773C131.461 56.7383 131.609 57.1445 131.812 57.4961C132.023 57.8398 132.297 58.1094 132.633 58.3047C132.969 58.5 133.379 58.5977 133.863 58.5977C134.332 58.5977 134.734 58.5 135.07 58.3047C135.406 58.1094 135.676 57.8398 135.879 57.4961C136.082 57.1445 136.23 56.7383 136.324 56.2773C136.426 55.8164 136.477 55.3203 136.477 54.7891V54.543C136.477 54.0273 136.426 53.543 136.324 53.0898C136.23 52.6289 136.078 52.2227 135.867 51.8711C135.664 51.5117 135.395 51.2305 135.059 51.0273C134.723 50.8242 134.316 50.7227 133.84 50.7227C133.363 50.7227 132.957 50.8242 132.621 51.0273C132.293 51.2305 132.023 51.5117 131.812 51.8711C131.609 52.2227 131.461 52.6289 131.367 53.0898C131.273 53.543 131.227 54.0273 131.227 54.543ZM149.965 48.3203H153.023V60.5781C153.023 61.7344 152.766 62.7148 152.25 63.5195C151.742 64.332 151.031 64.9453 150.117 65.3594C149.203 65.7812 148.141 65.9922 146.93 65.9922C146.398 65.9922 145.836 65.9219 145.242 65.7812C144.656 65.6406 144.094 65.4219 143.555 65.125C143.023 64.8281 142.578 64.4531 142.219 64L143.707 62.0078C144.098 62.4609 144.551 62.8125 145.066 63.0625C145.582 63.3203 146.152 63.4492 146.777 63.4492C147.387 63.4492 147.902 63.3359 148.324 63.1094C148.746 62.8906 149.07 62.5664 149.297 62.1367C149.523 61.7148 149.637 61.2031 149.637 60.6016V51.25L149.965 48.3203ZM141.434 54.8125V54.5664C141.434 53.5977 141.551 52.7188 141.785 51.9297C142.027 51.1328 142.367 50.4492 142.805 49.8789C143.25 49.3086 143.789 48.8672 144.422 48.5547C145.055 48.2422 145.77 48.0859 146.566 48.0859C147.41 48.0859 148.117 48.2422 148.688 48.5547C149.258 48.8672 149.727 49.3125 150.094 49.8906C150.461 50.4609 150.746 51.1367 150.949 51.918C151.16 52.6914 151.324 53.5391 151.441 54.4609V55C151.324 55.8828 151.148 56.7031 150.914 57.4609C150.68 58.2188 150.371 58.8828 149.988 59.4531C149.605 60.0156 149.129 60.4531 148.559 60.7656C147.996 61.0781 147.324 61.2344 146.543 61.2344C145.762 61.2344 145.055 61.0742 144.422 60.7539C143.797 60.4336 143.262 59.9844 142.816 59.4062C142.371 58.8281 142.027 58.1484 141.785 57.3672C141.551 56.5859 141.434 55.7344 141.434 54.8125ZM144.809 54.5664V54.8125C144.809 55.3359 144.859 55.8242 144.961 56.2773C145.062 56.7305 145.219 57.1328 145.43 57.4844C145.648 57.8281 145.918 58.0977 146.238 58.293C146.566 58.4805 146.953 58.5742 147.398 58.5742C148.016 58.5742 148.52 58.4453 148.91 58.1875C149.301 57.9219 149.594 57.5586 149.789 57.0977C149.984 56.6367 150.098 56.1055 150.129 55.5039V53.9688C150.113 53.4766 150.047 53.0352 149.93 52.6445C149.812 52.2461 149.648 51.9062 149.438 51.625C149.227 51.3438 148.953 51.125 148.617 50.9688C148.281 50.8125 147.883 50.7344 147.422 50.7344C146.977 50.7344 146.59 50.8359 146.262 51.0391C145.941 51.2344 145.672 51.5039 145.453 51.8477C145.242 52.1914 145.082 52.5977 144.973 53.0664C144.863 53.5273 144.809 54.0273 144.809 54.5664ZM158.953 51.0273V61H155.578V48.3203H158.742L158.953 51.0273ZM158.461 54.2148H157.547C157.547 53.2773 157.668 52.4336 157.91 51.6836C158.152 50.9258 158.492 50.2812 158.93 49.75C159.367 49.2109 159.887 48.8008 160.488 48.5195C161.098 48.2305 161.777 48.0859 162.527 48.0859C163.121 48.0859 163.664 48.1719 164.156 48.3438C164.648 48.5156 165.07 48.7891 165.422 49.1641C165.781 49.5391 166.055 50.0352 166.242 50.6523C166.438 51.2695 166.535 52.0234 166.535 52.9141V61H163.137V52.9023C163.137 52.3398 163.059 51.9023 162.902 51.5898C162.746 51.2773 162.516 51.0586 162.211 50.9336C161.914 50.8008 161.547 50.7344 161.109 50.7344C160.656 50.7344 160.262 50.8242 159.926 51.0039C159.598 51.1836 159.324 51.4336 159.105 51.7539C158.895 52.0664 158.734 52.4336 158.625 52.8555C158.516 53.2773 158.461 53.7305 158.461 54.2148ZM172.664 48.3203V61H169.277V48.3203H172.664ZM169.066 45.0156C169.066 44.5234 169.238 44.1172 169.582 43.7969C169.926 43.4766 170.387 43.3164 170.965 43.3164C171.535 43.3164 171.992 43.4766 172.336 43.7969C172.688 44.1172 172.863 44.5234 172.863 45.0156C172.863 45.5078 172.688 45.9141 172.336 46.2344C171.992 46.5547 171.535 46.7148 170.965 46.7148C170.387 46.7148 169.926 46.5547 169.582 46.2344C169.238 45.9141 169.066 45.5078 169.066 45.0156ZM179.754 61H176.355V47.1953C176.355 46.2344 176.543 45.4258 176.918 44.7695C177.301 44.1055 177.836 43.6055 178.523 43.2695C179.219 42.9258 180.043 42.7539 180.996 42.7539C181.309 42.7539 181.609 42.7773 181.898 42.8242C182.188 42.8633 182.469 42.9141 182.742 42.9766L182.707 45.5195C182.559 45.4805 182.402 45.4531 182.238 45.4375C182.074 45.4219 181.883 45.4141 181.664 45.4141C181.258 45.4141 180.91 45.4844 180.621 45.625C180.34 45.7578 180.125 45.957 179.977 46.2227C179.828 46.4883 179.754 46.8125 179.754 47.1953V61ZM182.285 48.3203V50.7109H174.469V48.3203H182.285ZM187.816 59.5703L191.18 48.3203H194.801L189.703 62.9102C189.594 63.2305 189.445 63.5742 189.258 63.9414C189.078 64.3086 188.832 64.6562 188.52 64.9844C188.215 65.3203 187.828 65.5938 187.359 65.8047C186.898 66.0156 186.332 66.1211 185.66 66.1211C185.34 66.1211 185.078 66.1016 184.875 66.0625C184.672 66.0234 184.43 65.9688 184.148 65.8984V63.4258C184.234 63.4258 184.324 63.4258 184.418 63.4258C184.512 63.4336 184.602 63.4375 184.688 63.4375C185.133 63.4375 185.496 63.3867 185.777 63.2852C186.059 63.1836 186.285 63.0273 186.457 62.8164C186.629 62.6133 186.766 62.3477 186.867 62.0195L187.816 59.5703ZM186.41 48.3203L189.164 57.5078L189.645 61.082L187.348 61.3281L182.789 48.3203H186.41ZM207.809 58.2578V61H198.727V58.2578H207.809ZM199.875 43.9375V61H196.359V43.9375H199.875ZM206.625 50.8867V53.5586H198.727V50.8867H206.625ZM207.797 43.9375V46.6914H198.727V43.9375H207.797ZM216.902 58.2344V43H220.301V61H217.242L216.902 58.2344ZM208.887 54.8125V54.5664C208.887 53.5977 208.996 52.7188 209.215 51.9297C209.434 51.1328 209.754 50.4492 210.176 49.8789C210.598 49.3086 211.117 48.8672 211.734 48.5547C212.352 48.2422 213.055 48.0859 213.844 48.0859C214.586 48.0859 215.234 48.2422 215.789 48.5547C216.352 48.8672 216.828 49.3125 217.219 49.8906C217.617 50.4609 217.938 51.1367 218.18 51.918C218.422 52.6914 218.598 53.5391 218.707 54.4609V55C218.598 55.8828 218.422 56.7031 218.18 57.4609C217.938 58.2188 217.617 58.8828 217.219 59.4531C216.828 60.0156 216.352 60.4531 215.789 60.7656C215.227 61.0781 214.57 61.2344 213.82 61.2344C213.031 61.2344 212.328 61.0742 211.711 60.7539C211.102 60.4336 210.586 59.9844 210.164 59.4062C209.75 58.8281 209.434 58.1484 209.215 57.3672C208.996 56.5859 208.887 55.7344 208.887 54.8125ZM212.262 54.5664V54.8125C212.262 55.3359 212.301 55.8242 212.379 56.2773C212.465 56.7305 212.602 57.1328 212.789 57.4844C212.984 57.8281 213.234 58.0977 213.539 58.293C213.852 58.4805 214.23 58.5742 214.676 58.5742C215.254 58.5742 215.73 58.4453 216.105 58.1875C216.48 57.9219 216.766 57.5586 216.961 57.0977C217.164 56.6367 217.281 56.1055 217.312 55.5039V53.9688C217.289 53.4766 217.219 53.0352 217.102 52.6445C216.992 52.2461 216.828 51.9062 216.609 51.625C216.398 51.3438 216.133 51.125 215.812 50.9688C215.5 50.8125 215.129 50.7344 214.699 50.7344C214.262 50.7344 213.887 50.8359 213.574 51.0391C213.262 51.2344 213.008 51.5039 212.812 51.8477C212.625 52.1914 212.484 52.5977 212.391 53.0664C212.305 53.5273 212.262 54.0273 212.262 54.5664ZM230.438 57.9648V48.3203H233.812V61H230.637L230.438 57.9648ZM230.812 55.3633L231.809 55.3398C231.809 56.1836 231.711 56.9688 231.516 57.6953C231.32 58.4141 231.027 59.0391 230.637 59.5703C230.246 60.0938 229.754 60.5039 229.16 60.8008C228.566 61.0898 227.867 61.2344 227.062 61.2344C226.445 61.2344 225.875 61.1484 225.352 60.9766C224.836 60.7969 224.391 60.5195 224.016 60.1445C223.648 59.7617 223.359 59.2734 223.148 58.6797C222.945 58.0781 222.844 57.3555 222.844 56.5117V48.3203H226.219V56.5352C226.219 56.9102 226.262 57.2266 226.348 57.4844C226.441 57.7422 226.57 57.9531 226.734 58.1172C226.898 58.2812 227.09 58.3984 227.309 58.4688C227.535 58.5391 227.785 58.5742 228.059 58.5742C228.754 58.5742 229.301 58.4336 229.699 58.1523C230.105 57.8711 230.391 57.4883 230.555 57.0039C230.727 56.5117 230.812 55.9648 230.812 55.3633Z" fill="#888888"/>
<path d="M118.594 98.4219V104.75H101.086V98.4219H118.594ZM103.828 84.875V119H95.6016V84.875H103.828ZM124.125 84.875V119H115.922V84.875H124.125ZM127.992 106.578V106.086C127.992 104.227 128.258 102.516 128.789 100.953C129.32 99.375 130.102 98.0078 131.133 96.8516C132.164 95.6953 133.438 94.7969 134.953 94.1562C136.469 93.5 138.219 93.1719 140.203 93.1719C142.203 93.1719 143.961 93.5 145.477 94.1562C147.008 94.7969 148.289 95.6953 149.32 96.8516C150.352 98.0078 151.133 99.375 151.664 100.953C152.195 102.516 152.461 104.227 152.461 106.086V106.578C152.461 108.422 152.195 110.133 151.664 111.711C151.133 113.273 150.352 114.641 149.32 115.812C148.289 116.969 147.016 117.867 145.5 118.508C143.984 119.148 142.234 119.469 140.25 119.469C138.266 119.469 136.508 119.148 134.977 118.508C133.445 117.867 132.164 116.969 131.133 115.812C130.102 114.641 129.32 113.273 128.789 111.711C128.258 110.133 127.992 108.422 127.992 106.578ZM135.891 106.086V106.578C135.891 107.531 135.961 108.422 136.102 109.25C136.242 110.078 136.477 110.805 136.805 111.43C137.133 112.039 137.578 112.516 138.141 112.859C138.703 113.203 139.406 113.375 140.25 113.375C141.078 113.375 141.766 113.203 142.312 112.859C142.875 112.516 143.32 112.039 143.648 111.43C143.977 110.805 144.211 110.078 144.352 109.25C144.492 108.422 144.562 107.531 144.562 106.578V106.086C144.562 105.164 144.492 104.297 144.352 103.484C144.211 102.656 143.977 101.93 143.648 101.305C143.32 100.664 142.875 100.164 142.312 99.8047C141.75 99.4453 141.047 99.2656 140.203 99.2656C139.375 99.2656 138.68 99.4453 138.117 99.8047C137.57 100.164 137.133 100.664 136.805 101.305C136.477 101.93 136.242 102.656 136.102 103.484C135.961 104.297 135.891 105.164 135.891 106.086ZM163.688 111.453L168.375 93.6406H173.32L171.562 102.57L166.922 119H162.961L163.688 111.453ZM161.836 93.6406L164.742 111.312L165.07 119H160.266L154.266 93.6406H161.836ZM177.492 110.938L180.422 93.6406H187.992L182.039 119H177.234L177.492 110.938ZM173.883 93.6406L178.617 111.406L179.344 119H175.336L170.789 102.617L169.102 93.6406H173.883ZM218.297 84.875V119H210.07V84.875H218.297ZM228.562 84.875V91.2266H200.039V84.875H228.562ZM225.773 106.578V106.086C225.773 104.227 226.039 102.516 226.57 100.953C227.102 99.375 227.883 98.0078 228.914 96.8516C229.945 95.6953 231.219 94.7969 232.734 94.1562C234.25 93.5 236 93.1719 237.984 93.1719C239.984 93.1719 241.742 93.5 243.258 94.1562C244.789 94.7969 246.07 95.6953 247.102 96.8516C248.133 98.0078 248.914 99.375 249.445 100.953C249.977 102.516 250.242 104.227 250.242 106.086V106.578C250.242 108.422 249.977 110.133 249.445 111.711C248.914 113.273 248.133 114.641 247.102 115.812C246.07 116.969 244.797 117.867 243.281 118.508C241.766 119.148 240.016 119.469 238.031 119.469C236.047 119.469 234.289 119.148 232.758 118.508C231.227 117.867 229.945 116.969 228.914 115.812C227.883 114.641 227.102 113.273 226.57 111.711C226.039 110.133 225.773 108.422 225.773 106.578ZM233.672 106.086V106.578C233.672 107.531 233.742 108.422 233.883 109.25C234.023 110.078 234.258 110.805 234.586 111.43C234.914 112.039 235.359 112.516 235.922 112.859C236.484 113.203 237.188 113.375 238.031 113.375C238.859 113.375 239.547 113.203 240.094 112.859C240.656 112.516 241.102 112.039 241.43 111.43C241.758 110.805 241.992 110.078 242.133 109.25C242.273 108.422 242.344 107.531 242.344 106.578V106.086C242.344 105.164 242.273 104.297 242.133 103.484C241.992 102.656 241.758 101.93 241.43 101.305C241.102 100.664 240.656 100.164 240.094 99.8047C239.531 99.4453 238.828 99.2656 237.984 99.2656C237.156 99.2656 236.461 99.4453 235.898 99.8047C235.352 100.164 234.914 100.664 234.586 101.305C234.258 101.93 234.023 102.656 233.883 103.484C233.742 104.297 233.672 105.164 233.672 106.086ZM266.086 84.875H279.516C282.141 84.875 284.422 85.2656 286.359 86.0469C288.297 86.8281 289.789 87.9844 290.836 89.5156C291.898 91.0469 292.43 92.9375 292.43 95.1875C292.43 97.1406 292.125 98.7734 291.516 100.086C290.906 101.398 290.055 102.484 288.961 103.344C287.883 104.188 286.625 104.883 285.188 105.43L282.492 106.953H271.219L271.172 100.602H279.516C280.562 100.602 281.43 100.414 282.117 100.039C282.805 99.6641 283.32 99.1328 283.664 98.4453C284.023 97.7422 284.203 96.9062 284.203 95.9375C284.203 94.9531 284.023 94.1094 283.664 93.4062C283.305 92.7031 282.773 92.1641 282.07 91.7891C281.383 91.4141 280.531 91.2266 279.516 91.2266H274.312V119H266.086V84.875ZM284.766 119L277.219 103.906L285.938 103.859L293.578 118.648V119H284.766ZM311.836 112.836V93.6406H319.758V119H312.352L311.836 112.836ZM312.586 107.68L314.648 107.633C314.648 109.336 314.445 110.914 314.039 112.367C313.633 113.805 313.031 115.055 312.234 116.117C311.453 117.18 310.484 118.008 309.328 118.602C308.188 119.18 306.867 119.469 305.367 119.469C304.117 119.469 302.969 119.297 301.922 118.953C300.891 118.594 300 118.039 299.25 117.289C298.5 116.523 297.914 115.547 297.492 114.359C297.086 113.156 296.883 111.719 296.883 110.047V93.6406H304.781V110.094C304.781 110.656 304.852 111.141 304.992 111.547C305.133 111.953 305.336 112.297 305.602 112.578C305.867 112.844 306.195 113.047 306.586 113.188C306.992 113.312 307.453 113.375 307.969 113.375C309.156 113.375 310.086 113.125 310.758 112.625C311.43 112.125 311.898 111.445 312.164 110.586C312.445 109.727 312.586 108.758 312.586 107.68ZM331.875 99.0547V119H323.977V93.6406H331.383L331.875 99.0547ZM330.938 105.453L329.086 105.5C329.086 103.562 329.32 101.836 329.789 100.32C330.258 98.7891 330.922 97.4922 331.781 96.4297C332.641 95.3672 333.664 94.5625 334.852 94.0156C336.055 93.4531 337.391 93.1719 338.859 93.1719C340.031 93.1719 341.102 93.3438 342.07 93.6875C343.055 94.0312 343.898 94.5859 344.602 95.3516C345.32 96.1172 345.867 97.1328 346.242 98.3984C346.633 99.6484 346.828 101.195 346.828 103.039V119H338.883V103.016C338.883 102 338.742 101.227 338.461 100.695C338.18 100.148 337.773 99.7734 337.242 99.5703C336.711 99.3672 336.062 99.2656 335.297 99.2656C334.484 99.2656 333.797 99.4219 333.234 99.7344C332.672 100.047 332.219 100.484 331.875 101.047C331.547 101.594 331.305 102.242 331.148 102.992C331.008 103.742 330.938 104.562 330.938 105.453ZM363.773 108.195H357.047C357.047 106.82 357.141 105.609 357.328 104.562C357.531 103.5 357.875 102.547 358.359 101.703C358.844 100.859 359.5 100.078 360.328 99.3594C361.062 98.75 361.695 98.1641 362.227 97.6016C362.758 97.0391 363.164 96.4688 363.445 95.8906C363.727 95.3125 363.867 94.6953 363.867 94.0391C363.867 93.2266 363.75 92.5625 363.516 92.0469C363.297 91.5312 362.961 91.1484 362.508 90.8984C362.07 90.6328 361.516 90.5 360.844 90.5C360.297 90.5 359.781 90.6328 359.297 90.8984C358.828 91.1641 358.445 91.5781 358.148 92.1406C357.852 92.6875 357.688 93.4141 357.656 94.3203H349.711C349.758 91.9922 350.273 90.1016 351.258 88.6484C352.258 87.1797 353.586 86.1094 355.242 85.4375C356.914 84.75 358.781 84.4062 360.844 84.4062C363.125 84.4062 365.086 84.7578 366.727 85.4609C368.367 86.1641 369.625 87.2109 370.5 88.6016C371.375 89.9766 371.812 91.6719 371.812 93.6875C371.812 95.0312 371.555 96.2031 371.039 97.2031C370.539 98.1875 369.859 99.1094 369 99.9688C368.156 100.812 367.211 101.719 366.164 102.688C365.258 103.484 364.641 104.297 364.312 105.125C363.984 105.938 363.805 106.961 363.773 108.195ZM356.086 115.32C356.086 114.195 356.492 113.258 357.305 112.508C358.117 111.742 359.172 111.359 360.469 111.359C361.766 111.359 362.82 111.742 363.633 112.508C364.445 113.258 364.852 114.195 364.852 115.32C364.852 116.445 364.445 117.391 363.633 118.156C362.82 118.906 361.766 119.281 360.469 119.281C359.172 119.281 358.117 118.906 357.305 118.156C356.492 117.391 356.086 116.445 356.086 115.32Z" fill="black"/>
<path d="M1134 0H1348C1356.28 0 1363 6.71573 1363 15V148C1363 156.284 1356.28 163 1348 163H1134V0Z" fill="#11DAE6"/>
<path d="M1260.62 78.8847C1263.81 78.8847 1266.93 79.805 1269.59 81.5293C1272.25 83.2536 1274.32 85.7044 1275.54 88.5718C1276.76 91.4391 1277.08 94.5943 1276.46 97.6383C1275.84 100.682 1274.3 103.478 1272.04 105.673C1269.78 107.868 1266.9 109.362 1263.77 109.968C1260.63 110.573 1257.39 110.262 1254.43 109.075C1251.48 107.887 1248.96 105.876 1247.18 103.295C1245.41 100.714 1244.46 97.6806 1244.46 94.5769C1244.46 90.4151 1246.16 86.4237 1249.19 83.4808C1252.22 80.538 1256.33 78.8847 1260.62 78.8847ZM1260.62 73.6539C1256.36 73.6539 1252.19 74.881 1248.65 77.1801C1245.11 79.4791 1242.35 82.7469 1240.72 86.57C1239.09 90.3932 1238.66 94.6001 1239.49 98.6588C1240.32 102.717 1242.37 106.446 1245.39 109.372C1248.4 112.298 1252.24 114.291 1256.41 115.098C1260.59 115.905 1264.92 115.491 1268.86 113.907C1272.79 112.324 1276.16 109.642 1278.52 106.201C1280.89 102.76 1282.15 98.7151 1282.15 94.5769C1282.15 89.0278 1279.88 83.706 1275.85 79.7821C1271.81 75.8583 1266.33 73.6539 1260.62 73.6539Z" fill="white"/>
<path d="M1274.08 47.5H1220.23C1218.8 47.5 1217.43 48.0511 1216.42 49.0321C1215.41 50.013 1214.85 51.3435 1214.85 52.7307V105.038C1214.85 106.426 1215.41 107.756 1216.42 108.737C1217.43 109.718 1218.8 110.269 1220.23 110.269H1231V105.038H1220.23V68.423H1279.46V52.7307C1279.46 51.3435 1278.89 50.013 1277.88 49.0321C1276.87 48.0511 1275.5 47.5 1274.08 47.5ZM1220.23 63.1922V52.7307H1274.08V63.1922H1220.23Z" fill="white"/>
<path d="M1255.23 86.731V102.423L1268.69 94.5771L1255.23 86.731Z" fill="white"/>
</svg>
