<svg width="1363" height="163" viewBox="0 0 1363 163" fill="none" xmlns="http://www.w3.org/2000/svg">
<path d="M0 15C0 6.71573 6.71573 0 15 0H37V163H15C6.71573 163 0 156.284 0 148V15Z" fill="#424242"/>
<rect width="1097" height="163" transform="translate(37)" fill="#F0F0F0"/>
<path d="M101.906 53.9219L94.3945 51.2383V48.0859L104.602 52.375V54.6367L101.906 53.9219ZM94.3945 56.1719L101.918 53.4297L104.602 52.7852V55.0352L94.3945 59.3242V56.1719ZM122.789 55.3398H126.293C126.223 56.4883 125.906 57.5078 125.344 58.3984C124.789 59.2891 124.012 59.9844 123.012 60.4844C122.02 60.9844 120.824 61.2344 119.426 61.2344C118.332 61.2344 117.352 61.0469 116.484 60.6719C115.617 60.2891 114.875 59.7422 114.258 59.0312C113.648 58.3203 113.184 57.4609 112.863 56.4531C112.543 55.4453 112.383 54.3164 112.383 53.0664V51.8828C112.383 50.6328 112.547 49.5039 112.875 48.4961C113.211 47.4805 113.688 46.6172 114.305 45.9062C114.93 45.1953 115.676 44.6484 116.543 44.2656C117.41 43.8828 118.379 43.6914 119.449 43.6914C120.871 43.6914 122.07 43.9492 123.047 44.4648C124.031 44.9805 124.793 45.6914 125.332 46.5977C125.879 47.5039 126.207 48.5352 126.316 49.6914H122.801C122.762 49.0039 122.625 48.4219 122.391 47.9453C122.156 47.4609 121.801 47.0977 121.324 46.8555C120.855 46.6055 120.23 46.4805 119.449 46.4805C118.863 46.4805 118.352 46.5898 117.914 46.8086C117.477 47.0273 117.109 47.3594 116.812 47.8047C116.516 48.25 116.293 48.8125 116.145 49.4922C116.004 50.1641 115.934 50.9531 115.934 51.8594V53.0664C115.934 53.9492 116 54.7266 116.133 55.3984C116.266 56.0625 116.469 56.625 116.742 57.0859C117.023 57.5391 117.383 57.8828 117.82 58.1172C118.266 58.3438 118.801 58.457 119.426 58.457C120.16 58.457 120.766 58.3398 121.242 58.1055C121.719 57.8711 122.082 57.5234 122.332 57.0625C122.59 56.6016 122.742 56.0273 122.789 55.3398ZM127.852 54.7891V54.543C127.852 53.6133 127.984 52.7578 128.25 51.9766C128.516 51.1875 128.902 50.5039 129.41 49.9258C129.918 49.3477 130.543 48.8984 131.285 48.5781C132.027 48.25 132.879 48.0859 133.84 48.0859C134.801 48.0859 135.656 48.25 136.406 48.5781C137.156 48.8984 137.785 49.3477 138.293 49.9258C138.809 50.5039 139.199 51.1875 139.465 51.9766C139.73 52.7578 139.863 53.6133 139.863 54.543V54.7891C139.863 55.7109 139.73 56.5664 139.465 57.3555C139.199 58.1367 138.809 58.8203 138.293 59.4062C137.785 59.9844 137.16 60.4336 136.418 60.7539C135.676 61.0742 134.824 61.2344 133.863 61.2344C132.902 61.2344 132.047 61.0742 131.297 60.7539C130.555 60.4336 129.926 59.9844 129.41 59.4062C128.902 58.8203 128.516 58.1367 128.25 57.3555C127.984 56.5664 127.852 55.7109 127.852 54.7891ZM131.227 54.543V54.7891C131.227 55.3203 131.273 55.8164 131.367 56.2773C131.461 56.7383 131.609 57.1445 131.812 57.4961C132.023 57.8398 132.297 58.1094 132.633 58.3047C132.969 58.5 133.379 58.5977 133.863 58.5977C134.332 58.5977 134.734 58.5 135.07 58.3047C135.406 58.1094 135.676 57.8398 135.879 57.4961C136.082 57.1445 136.23 56.7383 136.324 56.2773C136.426 55.8164 136.477 55.3203 136.477 54.7891V54.543C136.477 54.0273 136.426 53.543 136.324 53.0898C136.23 52.6289 136.078 52.2227 135.867 51.8711C135.664 51.5117 135.395 51.2305 135.059 51.0273C134.723 50.8242 134.316 50.7227 133.84 50.7227C133.363 50.7227 132.957 50.8242 132.621 51.0273C132.293 51.2305 132.023 51.5117 131.812 51.8711C131.609 52.2227 131.461 52.6289 131.367 53.0898C131.273 53.543 131.227 54.0273 131.227 54.543ZM149.965 48.3203H153.023V60.5781C153.023 61.7344 152.766 62.7148 152.25 63.5195C151.742 64.332 151.031 64.9453 150.117 65.3594C149.203 65.7812 148.141 65.9922 146.93 65.9922C146.398 65.9922 145.836 65.9219 145.242 65.7812C144.656 65.6406 144.094 65.4219 143.555 65.125C143.023 64.8281 142.578 64.4531 142.219 64L143.707 62.0078C144.098 62.4609 144.551 62.8125 145.066 63.0625C145.582 63.3203 146.152 63.4492 146.777 63.4492C147.387 63.4492 147.902 63.3359 148.324 63.1094C148.746 62.8906 149.07 62.5664 149.297 62.1367C149.523 61.7148 149.637 61.2031 149.637 60.6016V51.25L149.965 48.3203ZM141.434 54.8125V54.5664C141.434 53.5977 141.551 52.7188 141.785 51.9297C142.027 51.1328 142.367 50.4492 142.805 49.8789C143.25 49.3086 143.789 48.8672 144.422 48.5547C145.055 48.2422 145.77 48.0859 146.566 48.0859C147.41 48.0859 148.117 48.2422 148.688 48.5547C149.258 48.8672 149.727 49.3125 150.094 49.8906C150.461 50.4609 150.746 51.1367 150.949 51.918C151.16 52.6914 151.324 53.5391 151.441 54.4609V55C151.324 55.8828 151.148 56.7031 150.914 57.4609C150.68 58.2188 150.371 58.8828 149.988 59.4531C149.605 60.0156 149.129 60.4531 148.559 60.7656C147.996 61.0781 147.324 61.2344 146.543 61.2344C145.762 61.2344 145.055 61.0742 144.422 60.7539C143.797 60.4336 143.262 59.9844 142.816 59.4062C142.371 58.8281 142.027 58.1484 141.785 57.3672C141.551 56.5859 141.434 55.7344 141.434 54.8125ZM144.809 54.5664V54.8125C144.809 55.3359 144.859 55.8242 144.961 56.2773C145.062 56.7305 145.219 57.1328 145.43 57.4844C145.648 57.8281 145.918 58.0977 146.238 58.293C146.566 58.4805 146.953 58.5742 147.398 58.5742C148.016 58.5742 148.52 58.4453 148.91 58.1875C149.301 57.9219 149.594 57.5586 149.789 57.0977C149.984 56.6367 150.098 56.1055 150.129 55.5039V53.9688C150.113 53.4766 150.047 53.0352 149.93 52.6445C149.812 52.2461 149.648 51.9062 149.438 51.625C149.227 51.3438 148.953 51.125 148.617 50.9688C148.281 50.8125 147.883 50.7344 147.422 50.7344C146.977 50.7344 146.59 50.8359 146.262 51.0391C145.941 51.2344 145.672 51.5039 145.453 51.8477C145.242 52.1914 145.082 52.5977 144.973 53.0664C144.863 53.5273 144.809 54.0273 144.809 54.5664ZM158.953 51.0273V61H155.578V48.3203H158.742L158.953 51.0273ZM158.461 54.2148H157.547C157.547 53.2773 157.668 52.4336 157.91 51.6836C158.152 50.9258 158.492 50.2812 158.93 49.75C159.367 49.2109 159.887 48.8008 160.488 48.5195C161.098 48.2305 161.777 48.0859 162.527 48.0859C163.121 48.0859 163.664 48.1719 164.156 48.3438C164.648 48.5156 165.07 48.7891 165.422 49.1641C165.781 49.5391 166.055 50.0352 166.242 50.6523C166.438 51.2695 166.535 52.0234 166.535 52.9141V61H163.137V52.9023C163.137 52.3398 163.059 51.9023 162.902 51.5898C162.746 51.2773 162.516 51.0586 162.211 50.9336C161.914 50.8008 161.547 50.7344 161.109 50.7344C160.656 50.7344 160.262 50.8242 159.926 51.0039C159.598 51.1836 159.324 51.4336 159.105 51.7539C158.895 52.0664 158.734 52.4336 158.625 52.8555C158.516 53.2773 158.461 53.7305 158.461 54.2148ZM172.664 48.3203V61H169.277V48.3203H172.664ZM169.066 45.0156C169.066 44.5234 169.238 44.1172 169.582 43.7969C169.926 43.4766 170.387 43.3164 170.965 43.3164C171.535 43.3164 171.992 43.4766 172.336 43.7969C172.688 44.1172 172.863 44.5234 172.863 45.0156C172.863 45.5078 172.688 45.9141 172.336 46.2344C171.992 46.5547 171.535 46.7148 170.965 46.7148C170.387 46.7148 169.926 46.5547 169.582 46.2344C169.238 45.9141 169.066 45.5078 169.066 45.0156ZM179.754 61H176.355V47.1953C176.355 46.2344 176.543 45.4258 176.918 44.7695C177.301 44.1055 177.836 43.6055 178.523 43.2695C179.219 42.9258 180.043 42.7539 180.996 42.7539C181.309 42.7539 181.609 42.7773 181.898 42.8242C182.188 42.8633 182.469 42.9141 182.742 42.9766L182.707 45.5195C182.559 45.4805 182.402 45.4531 182.238 45.4375C182.074 45.4219 181.883 45.4141 181.664 45.4141C181.258 45.4141 180.91 45.4844 180.621 45.625C180.34 45.7578 180.125 45.957 179.977 46.2227C179.828 46.4883 179.754 46.8125 179.754 47.1953V61ZM182.285 48.3203V50.7109H174.469V48.3203H182.285ZM187.816 59.5703L191.18 48.3203H194.801L189.703 62.9102C189.594 63.2305 189.445 63.5742 189.258 63.9414C189.078 64.3086 188.832 64.6562 188.52 64.9844C188.215 65.3203 187.828 65.5938 187.359 65.8047C186.898 66.0156 186.332 66.1211 185.66 66.1211C185.34 66.1211 185.078 66.1016 184.875 66.0625C184.672 66.0234 184.43 65.9688 184.148 65.8984V63.4258C184.234 63.4258 184.324 63.4258 184.418 63.4258C184.512 63.4336 184.602 63.4375 184.688 63.4375C185.133 63.4375 185.496 63.3867 185.777 63.2852C186.059 63.1836 186.285 63.0273 186.457 62.8164C186.629 62.6133 186.766 62.3477 186.867 62.0195L187.816 59.5703ZM186.41 48.3203L189.164 57.5078L189.645 61.082L187.348 61.3281L182.789 48.3203H186.41ZM207.809 58.2578V61H198.727V58.2578H207.809ZM199.875 43.9375V61H196.359V43.9375H199.875ZM206.625 50.8867V53.5586H198.727V50.8867H206.625ZM207.797 43.9375V46.6914H198.727V43.9375H207.797ZM216.902 58.2344V43H220.301V61H217.242L216.902 58.2344ZM208.887 54.8125V54.5664C208.887 53.5977 208.996 52.7188 209.215 51.9297C209.434 51.1328 209.754 50.4492 210.176 49.8789C210.598 49.3086 211.117 48.8672 211.734 48.5547C212.352 48.2422 213.055 48.0859 213.844 48.0859C214.586 48.0859 215.234 48.2422 215.789 48.5547C216.352 48.8672 216.828 49.3125 217.219 49.8906C217.617 50.4609 217.938 51.1367 218.18 51.918C218.422 52.6914 218.598 53.5391 218.707 54.4609V55C218.598 55.8828 218.422 56.7031 218.18 57.4609C217.938 58.2188 217.617 58.8828 217.219 59.4531C216.828 60.0156 216.352 60.4531 215.789 60.7656C215.227 61.0781 214.57 61.2344 213.82 61.2344C213.031 61.2344 212.328 61.0742 211.711 60.7539C211.102 60.4336 210.586 59.9844 210.164 59.4062C209.75 58.8281 209.434 58.1484 209.215 57.3672C208.996 56.5859 208.887 55.7344 208.887 54.8125ZM212.262 54.5664V54.8125C212.262 55.3359 212.301 55.8242 212.379 56.2773C212.465 56.7305 212.602 57.1328 212.789 57.4844C212.984 57.8281 213.234 58.0977 213.539 58.293C213.852 58.4805 214.23 58.5742 214.676 58.5742C215.254 58.5742 215.73 58.4453 216.105 58.1875C216.48 57.9219 216.766 57.5586 216.961 57.0977C217.164 56.6367 217.281 56.1055 217.312 55.5039V53.9688C217.289 53.4766 217.219 53.0352 217.102 52.6445C216.992 52.2461 216.828 51.9062 216.609 51.625C216.398 51.3438 216.133 51.125 215.812 50.9688C215.5 50.8125 215.129 50.7344 214.699 50.7344C214.262 50.7344 213.887 50.8359 213.574 51.0391C213.262 51.2344 213.008 51.5039 212.812 51.8477C212.625 52.1914 212.484 52.5977 212.391 53.0664C212.305 53.5273 212.262 54.0273 212.262 54.5664ZM230.438 57.9648V48.3203H233.812V61H230.637L230.438 57.9648ZM230.812 55.3633L231.809 55.3398C231.809 56.1836 231.711 56.9688 231.516 57.6953C231.32 58.4141 231.027 59.0391 230.637 59.5703C230.246 60.0938 229.754 60.5039 229.16 60.8008C228.566 61.0898 227.867 61.2344 227.062 61.2344C226.445 61.2344 225.875 61.1484 225.352 60.9766C224.836 60.7969 224.391 60.5195 224.016 60.1445C223.648 59.7617 223.359 59.2734 223.148 58.6797C222.945 58.0781 222.844 57.3555 222.844 56.5117V48.3203H226.219V56.5352C226.219 56.9102 226.262 57.2266 226.348 57.4844C226.441 57.7422 226.57 57.9531 226.734 58.1172C226.898 58.2812 227.09 58.3984 227.309 58.4688C227.535 58.5391 227.785 58.5742 228.059 58.5742C228.754 58.5742 229.301 58.4336 229.699 58.1523C230.105 57.8711 230.391 57.4883 230.555 57.0039C230.727 56.5117 230.812 55.9648 230.812 55.3633Z" fill="#888888"/>
<path d="M114.117 84.875H122.344V107.164C122.344 109.82 121.789 112.07 120.68 113.914C119.57 115.742 118.016 117.125 116.016 118.062C114.016 119 111.664 119.469 108.961 119.469C106.289 119.469 103.938 119 101.906 118.062C99.8906 117.125 98.3125 115.742 97.1719 113.914C96.0469 112.07 95.4844 109.82 95.4844 107.164V84.875H103.734V107.164C103.734 108.57 103.938 109.719 104.344 110.609C104.75 111.484 105.344 112.125 106.125 112.531C106.906 112.938 107.852 113.141 108.961 113.141C110.086 113.141 111.031 112.938 111.797 112.531C112.562 112.125 113.141 111.484 113.531 110.609C113.922 109.719 114.117 108.57 114.117 107.164V84.875ZM134.906 99.0547V119H127.008V93.6406H134.414L134.906 99.0547ZM133.969 105.453L132.117 105.5C132.117 103.562 132.352 101.836 132.82 100.32C133.289 98.7891 133.953 97.4922 134.812 96.4297C135.672 95.3672 136.695 94.5625 137.883 94.0156C139.086 93.4531 140.422 93.1719 141.891 93.1719C143.062 93.1719 144.133 93.3438 145.102 93.6875C146.086 94.0312 146.93 94.5859 147.633 95.3516C148.352 96.1172 148.898 97.1328 149.273 98.3984C149.664 99.6484 149.859 101.195 149.859 103.039V119H141.914V103.016C141.914 102 141.773 101.227 141.492 100.695C141.211 100.148 140.805 99.7734 140.273 99.5703C139.742 99.3672 139.094 99.2656 138.328 99.2656C137.516 99.2656 136.828 99.4219 136.266 99.7344C135.703 100.047 135.25 100.484 134.906 101.047C134.578 101.594 134.336 102.242 134.18 102.992C134.039 103.742 133.969 104.562 133.969 105.453ZM162.586 93.6406V119H154.664V93.6406H162.586ZM154.195 87.1016C154.195 85.9766 154.602 85.0547 155.414 84.3359C156.227 83.6172 157.281 83.2578 158.578 83.2578C159.875 83.2578 160.93 83.6172 161.742 84.3359C162.555 85.0547 162.961 85.9766 162.961 87.1016C162.961 88.2266 162.555 89.1484 161.742 89.8672C160.93 90.5859 159.875 90.9453 158.578 90.9453C157.281 90.9453 156.227 90.5859 155.414 89.8672C154.602 89.1484 154.195 88.2266 154.195 87.1016ZM180.82 93.6406V99.125H165.539V93.6406H180.82ZM168.75 87.3359H176.648V110.727C176.648 111.398 176.727 111.922 176.883 112.297C177.039 112.656 177.305 112.914 177.68 113.07C178.07 113.211 178.586 113.281 179.227 113.281C179.68 113.281 180.055 113.273 180.352 113.258C180.648 113.227 180.93 113.188 181.195 113.141V118.789C180.523 119.008 179.82 119.172 179.086 119.281C178.352 119.406 177.57 119.469 176.742 119.469C175.055 119.469 173.609 119.203 172.406 118.672C171.219 118.141 170.312 117.305 169.688 116.164C169.062 115.023 168.75 113.539 168.75 111.711V87.3359ZM211.406 84.875V119H203.18V84.875H211.406ZM221.672 84.875V91.2266H193.148V84.875H221.672ZM234.961 119.469C232.898 119.469 231.055 119.148 229.43 118.508C227.805 117.852 226.43 116.953 225.305 115.812C224.195 114.672 223.344 113.359 222.75 111.875C222.172 110.391 221.883 108.82 221.883 107.164V106.273C221.883 104.414 222.141 102.695 222.656 101.117C223.172 99.5234 223.938 98.1328 224.953 96.9453C225.969 95.7578 227.242 94.8359 228.773 94.1797C230.305 93.5078 232.086 93.1719 234.117 93.1719C235.914 93.1719 237.523 93.4609 238.945 94.0391C240.367 94.6172 241.57 95.4453 242.555 96.5234C243.555 97.6016 244.312 98.9062 244.828 100.438C245.359 101.969 245.625 103.688 245.625 105.594V108.805H224.906V103.859H237.914V103.25C237.93 102.406 237.781 101.688 237.469 101.094C237.172 100.5 236.734 100.047 236.156 99.7344C235.578 99.4219 234.875 99.2656 234.047 99.2656C233.188 99.2656 232.477 99.4531 231.914 99.8281C231.367 100.203 230.938 100.719 230.625 101.375C230.328 102.016 230.117 102.758 229.992 103.602C229.867 104.445 229.805 105.336 229.805 106.273V107.164C229.805 108.102 229.93 108.953 230.18 109.719C230.445 110.484 230.82 111.141 231.305 111.688C231.805 112.219 232.398 112.633 233.086 112.93C233.789 113.227 234.586 113.375 235.477 113.375C236.555 113.375 237.617 113.172 238.664 112.766C239.711 112.359 240.609 111.688 241.359 110.75L244.945 115.016C244.43 115.75 243.695 116.461 242.742 117.148C241.805 117.836 240.68 118.398 239.367 118.836C238.055 119.258 236.586 119.469 234.961 119.469ZM262.125 111.875C262.125 111.438 261.977 111.062 261.68 110.75C261.398 110.422 260.898 110.125 260.18 109.859C259.461 109.578 258.453 109.297 257.156 109.016C255.922 108.75 254.758 108.398 253.664 107.961C252.586 107.523 251.641 106.992 250.828 106.367C250.016 105.742 249.375 105 248.906 104.141C248.453 103.281 248.227 102.297 248.227 101.188C248.227 100.109 248.453 99.0938 248.906 98.1406C249.375 97.1719 250.055 96.3203 250.945 95.5859C251.852 94.8359 252.953 94.25 254.25 93.8281C255.547 93.3906 257.023 93.1719 258.68 93.1719C260.961 93.1719 262.93 93.5234 264.586 94.2266C266.242 94.9141 267.516 95.8828 268.406 97.1328C269.312 98.3672 269.766 99.7969 269.766 101.422H261.867C261.867 100.781 261.758 100.234 261.539 99.7812C261.336 99.3281 261 98.9844 260.531 98.75C260.062 98.5 259.438 98.375 258.656 98.375C258.109 98.375 257.609 98.4766 257.156 98.6797C256.719 98.8828 256.367 99.1641 256.102 99.5234C255.836 99.8828 255.703 100.305 255.703 100.789C255.703 101.133 255.781 101.445 255.938 101.727C256.109 101.992 256.367 102.242 256.711 102.477C257.055 102.695 257.492 102.898 258.023 103.086C258.555 103.258 259.195 103.414 259.945 103.555C261.648 103.867 263.242 104.312 264.727 104.891C266.211 105.469 267.414 106.289 268.336 107.352C269.273 108.414 269.742 109.844 269.742 111.641C269.742 112.766 269.484 113.805 268.969 114.758C268.453 115.695 267.711 116.523 266.742 117.242C265.773 117.945 264.609 118.492 263.25 118.883C261.891 119.273 260.359 119.469 258.656 119.469C256.234 119.469 254.188 119.039 252.516 118.18C250.844 117.305 249.578 116.211 248.719 114.898C247.875 113.57 247.453 112.227 247.453 110.867H254.812C254.844 111.648 255.031 112.289 255.375 112.789C255.734 113.289 256.211 113.656 256.805 113.891C257.398 114.125 258.086 114.242 258.867 114.242C259.586 114.242 260.18 114.141 260.648 113.938C261.133 113.734 261.5 113.461 261.75 113.117C262 112.758 262.125 112.344 262.125 111.875ZM286.805 93.6406V99.125H271.523V93.6406H286.805ZM274.734 87.3359H282.633V110.727C282.633 111.398 282.711 111.922 282.867 112.297C283.023 112.656 283.289 112.914 283.664 113.07C284.055 113.211 284.57 113.281 285.211 113.281C285.664 113.281 286.039 113.273 286.336 113.258C286.633 113.227 286.914 113.188 287.18 113.141V118.789C286.508 119.008 285.805 119.172 285.07 119.281C284.336 119.406 283.555 119.469 282.727 119.469C281.039 119.469 279.594 119.203 278.391 118.672C277.203 118.141 276.297 117.305 275.672 116.164C275.047 115.023 274.734 113.539 274.734 111.711V87.3359ZM298.289 93.6406V119H290.367V93.6406H298.289ZM289.898 87.1016C289.898 85.9766 290.305 85.0547 291.117 84.3359C291.93 83.6172 292.984 83.2578 294.281 83.2578C295.578 83.2578 296.633 83.6172 297.445 84.3359C298.258 85.0547 298.664 85.9766 298.664 87.1016C298.664 88.2266 298.258 89.1484 297.445 89.8672C296.633 90.5859 295.578 90.9453 294.281 90.9453C292.984 90.9453 291.93 90.5859 291.117 89.8672C290.305 89.1484 289.898 88.2266 289.898 87.1016ZM310.922 99.0547V119H303.023V93.6406H310.43L310.922 99.0547ZM309.984 105.453L308.133 105.5C308.133 103.562 308.367 101.836 308.836 100.32C309.305 98.7891 309.969 97.4922 310.828 96.4297C311.688 95.3672 312.711 94.5625 313.898 94.0156C315.102 93.4531 316.438 93.1719 317.906 93.1719C319.078 93.1719 320.148 93.3438 321.117 93.6875C322.102 94.0312 322.945 94.5859 323.648 95.3516C324.367 96.1172 324.914 97.1328 325.289 98.3984C325.68 99.6484 325.875 101.195 325.875 103.039V119H317.93V103.016C317.93 102 317.789 101.227 317.508 100.695C317.227 100.148 316.82 99.7734 316.289 99.5703C315.758 99.3672 315.109 99.2656 314.344 99.2656C313.531 99.2656 312.844 99.4219 312.281 99.7344C311.719 100.047 311.266 100.484 310.922 101.047C310.594 101.594 310.352 102.242 310.195 102.992C310.055 103.742 309.984 104.562 309.984 105.453ZM346.195 93.6406H353.367V118.016C353.367 120.359 352.828 122.344 351.75 123.969C350.672 125.609 349.164 126.852 347.227 127.695C345.305 128.555 343.055 128.984 340.477 128.984C339.336 128.984 338.172 128.836 336.984 128.539C335.797 128.258 334.688 127.836 333.656 127.273C332.625 126.711 331.758 126.016 331.055 125.188L334.359 120.547C335 121.266 335.805 121.875 336.773 122.375C337.742 122.891 338.883 123.148 340.195 123.148C341.336 123.148 342.289 122.945 343.055 122.539C343.836 122.133 344.43 121.539 344.836 120.758C345.242 119.992 345.445 119.062 345.445 117.969V99.6406L346.195 93.6406ZM329.344 106.625V106.133C329.344 104.211 329.578 102.461 330.047 100.883C330.531 99.2891 331.219 97.9219 332.109 96.7812C333.016 95.625 334.109 94.7344 335.391 94.1094C336.672 93.4844 338.117 93.1719 339.727 93.1719C341.461 93.1719 342.883 93.5078 343.992 94.1797C345.117 94.8359 346.016 95.7578 346.688 96.9453C347.375 98.1328 347.906 99.5234 348.281 101.117C348.672 102.695 349 104.398 349.266 106.227V106.812C349 108.531 348.633 110.156 348.164 111.688C347.711 113.203 347.117 114.547 346.383 115.719C345.648 116.891 344.727 117.812 343.617 118.484C342.523 119.141 341.211 119.469 339.68 119.469C338.086 119.469 336.648 119.148 335.367 118.508C334.102 117.867 333.016 116.969 332.109 115.812C331.219 114.656 330.531 113.297 330.047 111.734C329.578 110.172 329.344 108.469 329.344 106.625ZM337.242 106.133V106.625C337.242 107.578 337.328 108.461 337.5 109.273C337.688 110.086 337.969 110.805 338.344 111.43C338.719 112.039 339.18 112.516 339.727 112.859C340.289 113.203 340.945 113.375 341.695 113.375C342.836 113.375 343.758 113.133 344.461 112.648C345.164 112.164 345.672 111.477 345.984 110.586C346.297 109.695 346.43 108.648 346.383 107.445V105.594C346.414 104.562 346.344 103.656 346.172 102.875C346 102.078 345.727 101.414 345.352 100.883C344.992 100.352 344.508 99.9531 343.898 99.6875C343.305 99.4062 342.586 99.2656 341.742 99.2656C341.008 99.2656 340.359 99.4375 339.797 99.7812C339.234 100.125 338.766 100.609 338.391 101.234C338.016 101.844 337.727 102.57 337.523 103.414C337.336 104.242 337.242 105.148 337.242 106.133Z" fill="black"/>
<path d="M1134 0H1348C1356.28 0 1363 6.71573 1363 15V148C1363 156.284 1356.28 163 1348 163H1134V0Z" fill="#11DAE6"/>
<path d="M1210.62 43.625H1286.38V119.375H1210.62V43.625Z" fill="white" fill-opacity="0.01"/>
<path d="M1276.91 72.0312V105.172C1276.91 107.787 1274.79 109.906 1272.17 109.906H1224.83C1222.21 109.906 1220.09 107.787 1220.09 105.172V57.8281C1220.09 55.2134 1222.21 53.0938 1224.83 53.0938H1261.12" stroke="white" stroke-width="7.24" stroke-linecap="round" stroke-linejoin="round"/>
<path d="M1232.72 75.1875L1248.5 87.8125L1276.91 53.0938" stroke="white" stroke-width="7.24" stroke-linecap="round" stroke-linejoin="round"/>
</svg>
