<svg width="1363" height="163" viewBox="0 0 1363 163" fill="none" xmlns="http://www.w3.org/2000/svg">
<path d="M0 15C0 6.71573 6.71573 0 15 0H37V163H15C6.71573 163 0 156.284 0 148V15Z" fill="#424242"/>
<rect width="1097" height="163" transform="translate(37)" fill="#F0F0F0"/>
<path d="M101.906 53.9219L94.3945 51.2383V48.0859L104.602 52.375V54.6367L101.906 53.9219ZM94.3945 56.1719L101.918 53.4297L104.602 52.7852V55.0352L94.3945 59.3242V56.1719ZM122.789 55.3398H126.293C126.223 56.4883 125.906 57.5078 125.344 58.3984C124.789 59.2891 124.012 59.9844 123.012 60.4844C122.02 60.9844 120.824 61.2344 119.426 61.2344C118.332 61.2344 117.352 61.0469 116.484 60.6719C115.617 60.2891 114.875 59.7422 114.258 59.0312C113.648 58.3203 113.184 57.4609 112.863 56.4531C112.543 55.4453 112.383 54.3164 112.383 53.0664V51.8828C112.383 50.6328 112.547 49.5039 112.875 48.4961C113.211 47.4805 113.688 46.6172 114.305 45.9062C114.93 45.1953 115.676 44.6484 116.543 44.2656C117.41 43.8828 118.379 43.6914 119.449 43.6914C120.871 43.6914 122.07 43.9492 123.047 44.4648C124.031 44.9805 124.793 45.6914 125.332 46.5977C125.879 47.5039 126.207 48.5352 126.316 49.6914H122.801C122.762 49.0039 122.625 48.4219 122.391 47.9453C122.156 47.4609 121.801 47.0977 121.324 46.8555C120.855 46.6055 120.23 46.4805 119.449 46.4805C118.863 46.4805 118.352 46.5898 117.914 46.8086C117.477 47.0273 117.109 47.3594 116.812 47.8047C116.516 48.25 116.293 48.8125 116.145 49.4922C116.004 50.1641 115.934 50.9531 115.934 51.8594V53.0664C115.934 53.9492 116 54.7266 116.133 55.3984C116.266 56.0625 116.469 56.625 116.742 57.0859C117.023 57.5391 117.383 57.8828 117.82 58.1172C118.266 58.3438 118.801 58.457 119.426 58.457C120.16 58.457 120.766 58.3398 121.242 58.1055C121.719 57.8711 122.082 57.5234 122.332 57.0625C122.59 56.6016 122.742 56.0273 122.789 55.3398ZM127.852 54.7891V54.543C127.852 53.6133 127.984 52.7578 128.25 51.9766C128.516 51.1875 128.902 50.5039 129.41 49.9258C129.918 49.3477 130.543 48.8984 131.285 48.5781C132.027 48.25 132.879 48.0859 133.84 48.0859C134.801 48.0859 135.656 48.25 136.406 48.5781C137.156 48.8984 137.785 49.3477 138.293 49.9258C138.809 50.5039 139.199 51.1875 139.465 51.9766C139.73 52.7578 139.863 53.6133 139.863 54.543V54.7891C139.863 55.7109 139.73 56.5664 139.465 57.3555C139.199 58.1367 138.809 58.8203 138.293 59.4062C137.785 59.9844 137.16 60.4336 136.418 60.7539C135.676 61.0742 134.824 61.2344 133.863 61.2344C132.902 61.2344 132.047 61.0742 131.297 60.7539C130.555 60.4336 129.926 59.9844 129.41 59.4062C128.902 58.8203 128.516 58.1367 128.25 57.3555C127.984 56.5664 127.852 55.7109 127.852 54.7891ZM131.227 54.543V54.7891C131.227 55.3203 131.273 55.8164 131.367 56.2773C131.461 56.7383 131.609 57.1445 131.812 57.4961C132.023 57.8398 132.297 58.1094 132.633 58.3047C132.969 58.5 133.379 58.5977 133.863 58.5977C134.332 58.5977 134.734 58.5 135.07 58.3047C135.406 58.1094 135.676 57.8398 135.879 57.4961C136.082 57.1445 136.23 56.7383 136.324 56.2773C136.426 55.8164 136.477 55.3203 136.477 54.7891V54.543C136.477 54.0273 136.426 53.543 136.324 53.0898C136.23 52.6289 136.078 52.2227 135.867 51.8711C135.664 51.5117 135.395 51.2305 135.059 51.0273C134.723 50.8242 134.316 50.7227 133.84 50.7227C133.363 50.7227 132.957 50.8242 132.621 51.0273C132.293 51.2305 132.023 51.5117 131.812 51.8711C131.609 52.2227 131.461 52.6289 131.367 53.0898C131.273 53.543 131.227 54.0273 131.227 54.543ZM149.965 48.3203H153.023V60.5781C153.023 61.7344 152.766 62.7148 152.25 63.5195C151.742 64.332 151.031 64.9453 150.117 65.3594C149.203 65.7812 148.141 65.9922 146.93 65.9922C146.398 65.9922 145.836 65.9219 145.242 65.7812C144.656 65.6406 144.094 65.4219 143.555 65.125C143.023 64.8281 142.578 64.4531 142.219 64L143.707 62.0078C144.098 62.4609 144.551 62.8125 145.066 63.0625C145.582 63.3203 146.152 63.4492 146.777 63.4492C147.387 63.4492 147.902 63.3359 148.324 63.1094C148.746 62.8906 149.07 62.5664 149.297 62.1367C149.523 61.7148 149.637 61.2031 149.637 60.6016V51.25L149.965 48.3203ZM141.434 54.8125V54.5664C141.434 53.5977 141.551 52.7188 141.785 51.9297C142.027 51.1328 142.367 50.4492 142.805 49.8789C143.25 49.3086 143.789 48.8672 144.422 48.5547C145.055 48.2422 145.77 48.0859 146.566 48.0859C147.41 48.0859 148.117 48.2422 148.688 48.5547C149.258 48.8672 149.727 49.3125 150.094 49.8906C150.461 50.4609 150.746 51.1367 150.949 51.918C151.16 52.6914 151.324 53.5391 151.441 54.4609V55C151.324 55.8828 151.148 56.7031 150.914 57.4609C150.68 58.2188 150.371 58.8828 149.988 59.4531C149.605 60.0156 149.129 60.4531 148.559 60.7656C147.996 61.0781 147.324 61.2344 146.543 61.2344C145.762 61.2344 145.055 61.0742 144.422 60.7539C143.797 60.4336 143.262 59.9844 142.816 59.4062C142.371 58.8281 142.027 58.1484 141.785 57.3672C141.551 56.5859 141.434 55.7344 141.434 54.8125ZM144.809 54.5664V54.8125C144.809 55.3359 144.859 55.8242 144.961 56.2773C145.062 56.7305 145.219 57.1328 145.43 57.4844C145.648 57.8281 145.918 58.0977 146.238 58.293C146.566 58.4805 146.953 58.5742 147.398 58.5742C148.016 58.5742 148.52 58.4453 148.91 58.1875C149.301 57.9219 149.594 57.5586 149.789 57.0977C149.984 56.6367 150.098 56.1055 150.129 55.5039V53.9688C150.113 53.4766 150.047 53.0352 149.93 52.6445C149.812 52.2461 149.648 51.9062 149.438 51.625C149.227 51.3438 148.953 51.125 148.617 50.9688C148.281 50.8125 147.883 50.7344 147.422 50.7344C146.977 50.7344 146.59 50.8359 146.262 51.0391C145.941 51.2344 145.672 51.5039 145.453 51.8477C145.242 52.1914 145.082 52.5977 144.973 53.0664C144.863 53.5273 144.809 54.0273 144.809 54.5664ZM158.953 51.0273V61H155.578V48.3203H158.742L158.953 51.0273ZM158.461 54.2148H157.547C157.547 53.2773 157.668 52.4336 157.91 51.6836C158.152 50.9258 158.492 50.2812 158.93 49.75C159.367 49.2109 159.887 48.8008 160.488 48.5195C161.098 48.2305 161.777 48.0859 162.527 48.0859C163.121 48.0859 163.664 48.1719 164.156 48.3438C164.648 48.5156 165.07 48.7891 165.422 49.1641C165.781 49.5391 166.055 50.0352 166.242 50.6523C166.438 51.2695 166.535 52.0234 166.535 52.9141V61H163.137V52.9023C163.137 52.3398 163.059 51.9023 162.902 51.5898C162.746 51.2773 162.516 51.0586 162.211 50.9336C161.914 50.8008 161.547 50.7344 161.109 50.7344C160.656 50.7344 160.262 50.8242 159.926 51.0039C159.598 51.1836 159.324 51.4336 159.105 51.7539C158.895 52.0664 158.734 52.4336 158.625 52.8555C158.516 53.2773 158.461 53.7305 158.461 54.2148ZM172.664 48.3203V61H169.277V48.3203H172.664ZM169.066 45.0156C169.066 44.5234 169.238 44.1172 169.582 43.7969C169.926 43.4766 170.387 43.3164 170.965 43.3164C171.535 43.3164 171.992 43.4766 172.336 43.7969C172.688 44.1172 172.863 44.5234 172.863 45.0156C172.863 45.5078 172.688 45.9141 172.336 46.2344C171.992 46.5547 171.535 46.7148 170.965 46.7148C170.387 46.7148 169.926 46.5547 169.582 46.2344C169.238 45.9141 169.066 45.5078 169.066 45.0156ZM179.754 61H176.355V47.1953C176.355 46.2344 176.543 45.4258 176.918 44.7695C177.301 44.1055 177.836 43.6055 178.523 43.2695C179.219 42.9258 180.043 42.7539 180.996 42.7539C181.309 42.7539 181.609 42.7773 181.898 42.8242C182.188 42.8633 182.469 42.9141 182.742 42.9766L182.707 45.5195C182.559 45.4805 182.402 45.4531 182.238 45.4375C182.074 45.4219 181.883 45.4141 181.664 45.4141C181.258 45.4141 180.91 45.4844 180.621 45.625C180.34 45.7578 180.125 45.957 179.977 46.2227C179.828 46.4883 179.754 46.8125 179.754 47.1953V61ZM182.285 48.3203V50.7109H174.469V48.3203H182.285ZM187.816 59.5703L191.18 48.3203H194.801L189.703 62.9102C189.594 63.2305 189.445 63.5742 189.258 63.9414C189.078 64.3086 188.832 64.6562 188.52 64.9844C188.215 65.3203 187.828 65.5938 187.359 65.8047C186.898 66.0156 186.332 66.1211 185.66 66.1211C185.34 66.1211 185.078 66.1016 184.875 66.0625C184.672 66.0234 184.43 65.9688 184.148 65.8984V63.4258C184.234 63.4258 184.324 63.4258 184.418 63.4258C184.512 63.4336 184.602 63.4375 184.688 63.4375C185.133 63.4375 185.496 63.3867 185.777 63.2852C186.059 63.1836 186.285 63.0273 186.457 62.8164C186.629 62.6133 186.766 62.3477 186.867 62.0195L187.816 59.5703ZM186.41 48.3203L189.164 57.5078L189.645 61.082L187.348 61.3281L182.789 48.3203H186.41ZM207.809 58.2578V61H198.727V58.2578H207.809ZM199.875 43.9375V61H196.359V43.9375H199.875ZM206.625 50.8867V53.5586H198.727V50.8867H206.625ZM207.797 43.9375V46.6914H198.727V43.9375H207.797ZM216.902 58.2344V43H220.301V61H217.242L216.902 58.2344ZM208.887 54.8125V54.5664C208.887 53.5977 208.996 52.7188 209.215 51.9297C209.434 51.1328 209.754 50.4492 210.176 49.8789C210.598 49.3086 211.117 48.8672 211.734 48.5547C212.352 48.2422 213.055 48.0859 213.844 48.0859C214.586 48.0859 215.234 48.2422 215.789 48.5547C216.352 48.8672 216.828 49.3125 217.219 49.8906C217.617 50.4609 217.938 51.1367 218.18 51.918C218.422 52.6914 218.598 53.5391 218.707 54.4609V55C218.598 55.8828 218.422 56.7031 218.18 57.4609C217.938 58.2188 217.617 58.8828 217.219 59.4531C216.828 60.0156 216.352 60.4531 215.789 60.7656C215.227 61.0781 214.57 61.2344 213.82 61.2344C213.031 61.2344 212.328 61.0742 211.711 60.7539C211.102 60.4336 210.586 59.9844 210.164 59.4062C209.75 58.8281 209.434 58.1484 209.215 57.3672C208.996 56.5859 208.887 55.7344 208.887 54.8125ZM212.262 54.5664V54.8125C212.262 55.3359 212.301 55.8242 212.379 56.2773C212.465 56.7305 212.602 57.1328 212.789 57.4844C212.984 57.8281 213.234 58.0977 213.539 58.293C213.852 58.4805 214.23 58.5742 214.676 58.5742C215.254 58.5742 215.73 58.4453 216.105 58.1875C216.48 57.9219 216.766 57.5586 216.961 57.0977C217.164 56.6367 217.281 56.1055 217.312 55.5039V53.9688C217.289 53.4766 217.219 53.0352 217.102 52.6445C216.992 52.2461 216.828 51.9062 216.609 51.625C216.398 51.3438 216.133 51.125 215.812 50.9688C215.5 50.8125 215.129 50.7344 214.699 50.7344C214.262 50.7344 213.887 50.8359 213.574 51.0391C213.262 51.2344 213.008 51.5039 212.812 51.8477C212.625 52.1914 212.484 52.5977 212.391 53.0664C212.305 53.5273 212.262 54.0273 212.262 54.5664ZM230.438 57.9648V48.3203H233.812V61H230.637L230.438 57.9648ZM230.812 55.3633L231.809 55.3398C231.809 56.1836 231.711 56.9688 231.516 57.6953C231.32 58.4141 231.027 59.0391 230.637 59.5703C230.246 60.0938 229.754 60.5039 229.16 60.8008C228.566 61.0898 227.867 61.2344 227.062 61.2344C226.445 61.2344 225.875 61.1484 225.352 60.9766C224.836 60.7969 224.391 60.5195 224.016 60.1445C223.648 59.7617 223.359 59.2734 223.148 58.6797C222.945 58.0781 222.844 57.3555 222.844 56.5117V48.3203H226.219V56.5352C226.219 56.9102 226.262 57.2266 226.348 57.4844C226.441 57.7422 226.57 57.9531 226.734 58.1172C226.898 58.2812 227.09 58.3984 227.309 58.4688C227.535 58.5391 227.785 58.5742 228.059 58.5742C228.754 58.5742 229.301 58.4336 229.699 58.1523C230.105 57.8711 230.391 57.4883 230.555 57.0039C230.727 56.5117 230.812 55.9648 230.812 55.3633Z" fill="#888888"/>
<path d="M112.125 84.875V119H103.898V84.875H112.125ZM122.391 84.875V91.2266H93.8672V84.875H122.391ZM135.68 119.469C133.617 119.469 131.773 119.148 130.148 118.508C128.523 117.852 127.148 116.953 126.023 115.812C124.914 114.672 124.062 113.359 123.469 111.875C122.891 110.391 122.602 108.82 122.602 107.164V106.273C122.602 104.414 122.859 102.695 123.375 101.117C123.891 99.5234 124.656 98.1328 125.672 96.9453C126.688 95.7578 127.961 94.8359 129.492 94.1797C131.023 93.5078 132.805 93.1719 134.836 93.1719C136.633 93.1719 138.242 93.4609 139.664 94.0391C141.086 94.6172 142.289 95.4453 143.273 96.5234C144.273 97.6016 145.031 98.9062 145.547 100.438C146.078 101.969 146.344 103.688 146.344 105.594V108.805H125.625V103.859H138.633V103.25C138.648 102.406 138.5 101.688 138.188 101.094C137.891 100.5 137.453 100.047 136.875 99.7344C136.297 99.4219 135.594 99.2656 134.766 99.2656C133.906 99.2656 133.195 99.4531 132.633 99.8281C132.086 100.203 131.656 100.719 131.344 101.375C131.047 102.016 130.836 102.758 130.711 103.602C130.586 104.445 130.523 105.336 130.523 106.273V107.164C130.523 108.102 130.648 108.953 130.898 109.719C131.164 110.484 131.539 111.141 132.023 111.688C132.523 112.219 133.117 112.633 133.805 112.93C134.508 113.227 135.305 113.375 136.195 113.375C137.273 113.375 138.336 113.172 139.383 112.766C140.43 112.359 141.328 111.688 142.078 110.75L145.664 115.016C145.148 115.75 144.414 116.461 143.461 117.148C142.523 117.836 141.398 118.398 140.086 118.836C138.773 119.258 137.305 119.469 135.68 119.469ZM160.266 113.375C161 113.375 161.625 113.242 162.141 112.977C162.672 112.695 163.07 112.305 163.336 111.805C163.617 111.289 163.75 110.672 163.734 109.953H171.164C171.18 111.859 170.711 113.531 169.758 114.969C168.82 116.391 167.539 117.5 165.914 118.297C164.305 119.078 162.484 119.469 160.453 119.469C158.469 119.469 156.734 119.148 155.25 118.508C153.766 117.852 152.523 116.945 151.523 115.789C150.539 114.617 149.797 113.25 149.297 111.688C148.812 110.125 148.57 108.43 148.57 106.602V106.062C148.57 104.234 148.812 102.539 149.297 100.977C149.797 99.3984 150.539 98.0312 151.523 96.875C152.523 95.7031 153.758 94.7969 155.227 94.1562C156.711 93.5 158.438 93.1719 160.406 93.1719C162.516 93.1719 164.375 93.5703 165.984 94.3672C167.609 95.1641 168.883 96.3203 169.805 97.8359C170.727 99.3516 171.18 101.188 171.164 103.344H163.734C163.75 102.578 163.633 101.891 163.383 101.281C163.133 100.672 162.742 100.188 162.211 99.8281C161.695 99.4531 161.031 99.2656 160.219 99.2656C159.406 99.2656 158.75 99.4453 158.25 99.8047C157.75 100.164 157.367 100.664 157.102 101.305C156.852 101.93 156.68 102.648 156.586 103.461C156.508 104.273 156.469 105.141 156.469 106.062V106.602C156.469 107.539 156.508 108.422 156.586 109.25C156.68 110.062 156.859 110.781 157.125 111.406C157.391 112.016 157.773 112.5 158.273 112.859C158.773 113.203 159.438 113.375 160.266 113.375ZM182.273 83V119H174.375V83H182.273ZM181.336 105.453L179.484 105.5C179.484 103.719 179.703 102.078 180.141 100.578C180.578 99.0781 181.203 97.7734 182.016 96.6641C182.828 95.5547 183.805 94.6953 184.945 94.0859C186.086 93.4766 187.352 93.1719 188.742 93.1719C189.992 93.1719 191.133 93.3516 192.164 93.7109C193.211 94.0703 194.109 94.6484 194.859 95.4453C195.625 96.2422 196.211 97.2812 196.617 98.5625C197.039 99.8438 197.25 101.406 197.25 103.25V119H189.305V103.203C189.305 102.172 189.156 101.375 188.859 100.812C188.578 100.234 188.172 99.8359 187.641 99.6172C187.109 99.3828 186.461 99.2656 185.695 99.2656C184.773 99.2656 184.023 99.4219 183.445 99.7344C182.867 100.047 182.422 100.484 182.109 101.047C181.812 101.594 181.609 102.242 181.5 102.992C181.391 103.742 181.336 104.562 181.336 105.453ZM231.539 109.93C231.539 109.398 231.461 108.922 231.305 108.5C231.148 108.062 230.859 107.656 230.438 107.281C230.016 106.906 229.406 106.531 228.609 106.156C227.828 105.766 226.797 105.359 225.516 104.938C224.016 104.438 222.57 103.875 221.18 103.25C219.789 102.609 218.547 101.867 217.453 101.023C216.359 100.164 215.492 99.1641 214.852 98.0234C214.211 96.8672 213.891 95.5234 213.891 93.9922C213.891 92.5234 214.219 91.2031 214.875 90.0312C215.531 88.8438 216.445 87.8359 217.617 87.0078C218.805 86.1641 220.195 85.5234 221.789 85.0859C223.383 84.6328 225.125 84.4062 227.016 84.4062C229.516 84.4062 231.719 84.8438 233.625 85.7188C235.547 86.5781 237.047 87.8047 238.125 89.3984C239.219 90.9766 239.766 92.8438 239.766 95H231.586C231.586 94.1406 231.406 93.3828 231.047 92.7266C230.703 92.0703 230.18 91.5547 229.477 91.1797C228.773 90.8047 227.891 90.6172 226.828 90.6172C225.797 90.6172 224.93 90.7734 224.227 91.0859C223.523 91.3984 222.992 91.8203 222.633 92.3516C222.273 92.8672 222.094 93.4375 222.094 94.0625C222.094 94.5781 222.234 95.0469 222.516 95.4688C222.812 95.875 223.227 96.2578 223.758 96.6172C224.305 96.9766 224.961 97.3203 225.727 97.6484C226.508 97.9766 227.383 98.2969 228.352 98.6094C230.164 99.1875 231.773 99.8359 233.18 100.555C234.602 101.258 235.797 102.062 236.766 102.969C237.75 103.859 238.492 104.875 238.992 106.016C239.508 107.156 239.766 108.445 239.766 109.883C239.766 111.414 239.469 112.773 238.875 113.961C238.281 115.148 237.43 116.156 236.32 116.984C235.211 117.797 233.883 118.414 232.336 118.836C230.789 119.258 229.062 119.469 227.156 119.469C225.406 119.469 223.68 119.25 221.977 118.812C220.289 118.359 218.758 117.672 217.383 116.75C216.008 115.812 214.906 114.617 214.078 113.164C213.266 111.695 212.859 109.953 212.859 107.938H221.109C221.109 108.938 221.242 109.781 221.508 110.469C221.773 111.156 222.164 111.711 222.68 112.133C223.195 112.539 223.828 112.836 224.578 113.023C225.328 113.195 226.188 113.281 227.156 113.281C228.203 113.281 229.047 113.133 229.688 112.836C230.328 112.523 230.797 112.117 231.094 111.617C231.391 111.102 231.539 110.539 231.539 109.93ZM256.992 93.6406V99.125H241.711V93.6406H256.992ZM244.922 87.3359H252.82V110.727C252.82 111.398 252.898 111.922 253.055 112.297C253.211 112.656 253.477 112.914 253.852 113.07C254.242 113.211 254.758 113.281 255.398 113.281C255.852 113.281 256.227 113.273 256.523 113.258C256.82 113.227 257.102 113.188 257.367 113.141V118.789C256.695 119.008 255.992 119.172 255.258 119.281C254.523 119.406 253.742 119.469 252.914 119.469C251.227 119.469 249.781 119.203 248.578 118.672C247.391 118.141 246.484 117.305 245.859 116.164C245.234 115.023 244.922 113.539 244.922 111.711V87.3359ZM273.305 112.625V102.172C273.305 101.453 273.203 100.836 273 100.32C272.797 99.8047 272.477 99.4062 272.039 99.125C271.602 98.8281 271.016 98.6797 270.281 98.6797C269.688 98.6797 269.18 98.7812 268.758 98.9844C268.336 99.1875 268.016 99.4922 267.797 99.8984C267.578 100.305 267.469 100.82 267.469 101.445H259.57C259.57 100.273 259.828 99.1875 260.344 98.1875C260.875 97.1719 261.625 96.2891 262.594 95.5391C263.578 94.7891 264.75 94.2109 266.109 93.8047C267.484 93.3828 269.016 93.1719 270.703 93.1719C272.719 93.1719 274.516 93.5078 276.094 94.1797C277.688 94.8516 278.945 95.8594 279.867 97.2031C280.789 98.5312 281.25 100.203 281.25 102.219V112.602C281.25 114.258 281.344 115.516 281.531 116.375C281.719 117.219 281.984 117.961 282.328 118.602V119H274.406C274.031 118.219 273.75 117.266 273.562 116.141C273.391 115 273.305 113.828 273.305 112.625ZM274.266 103.508L274.312 107.727H270.82C270.086 107.727 269.461 107.828 268.945 108.031C268.445 108.234 268.039 108.516 267.727 108.875C267.43 109.219 267.211 109.609 267.07 110.047C266.945 110.484 266.883 110.945 266.883 111.43C266.883 111.898 266.992 112.32 267.211 112.695C267.445 113.055 267.758 113.336 268.148 113.539C268.539 113.742 268.977 113.844 269.461 113.844C270.336 113.844 271.078 113.68 271.688 113.352C272.312 113.008 272.789 112.594 273.117 112.109C273.445 111.625 273.609 111.172 273.609 110.75L275.344 113.984C275.031 114.609 274.672 115.242 274.266 115.883C273.875 116.523 273.383 117.117 272.789 117.664C272.211 118.195 271.5 118.633 270.656 118.977C269.812 119.305 268.789 119.469 267.586 119.469C266.023 119.469 264.586 119.148 263.273 118.508C261.977 117.867 260.938 116.977 260.156 115.836C259.375 114.68 258.984 113.352 258.984 111.852C258.984 110.539 259.219 109.367 259.688 108.336C260.172 107.305 260.898 106.43 261.867 105.711C262.836 104.992 264.07 104.445 265.57 104.07C267.07 103.695 268.836 103.508 270.867 103.508H274.266ZM296.344 113.375C297.078 113.375 297.703 113.242 298.219 112.977C298.75 112.695 299.148 112.305 299.414 111.805C299.695 111.289 299.828 110.672 299.812 109.953H307.242C307.258 111.859 306.789 113.531 305.836 114.969C304.898 116.391 303.617 117.5 301.992 118.297C300.383 119.078 298.562 119.469 296.531 119.469C294.547 119.469 292.812 119.148 291.328 118.508C289.844 117.852 288.602 116.945 287.602 115.789C286.617 114.617 285.875 113.25 285.375 111.688C284.891 110.125 284.648 108.43 284.648 106.602V106.062C284.648 104.234 284.891 102.539 285.375 100.977C285.875 99.3984 286.617 98.0312 287.602 96.875C288.602 95.7031 289.836 94.7969 291.305 94.1562C292.789 93.5 294.516 93.1719 296.484 93.1719C298.594 93.1719 300.453 93.5703 302.062 94.3672C303.688 95.1641 304.961 96.3203 305.883 97.8359C306.805 99.3516 307.258 101.188 307.242 103.344H299.812C299.828 102.578 299.711 101.891 299.461 101.281C299.211 100.672 298.82 100.188 298.289 99.8281C297.773 99.4531 297.109 99.2656 296.297 99.2656C295.484 99.2656 294.828 99.4453 294.328 99.8047C293.828 100.164 293.445 100.664 293.18 101.305C292.93 101.93 292.758 102.648 292.664 103.461C292.586 104.273 292.547 105.141 292.547 106.062V106.602C292.547 107.539 292.586 108.422 292.664 109.25C292.758 110.062 292.938 110.781 293.203 111.406C293.469 112.016 293.852 112.5 294.352 112.859C294.852 113.203 295.516 113.375 296.344 113.375ZM318.586 82.9766V119H310.688V82.9766H318.586ZM334.805 93.6406L323.789 106.555L318.023 112.32L314.578 107.305L319.383 101.047L325.336 93.6406H334.805ZM326.344 119L319.57 107.445L325.406 103.297L335.391 119H326.344ZM350.156 111.875C350.156 111.438 350.008 111.062 349.711 110.75C349.43 110.422 348.93 110.125 348.211 109.859C347.492 109.578 346.484 109.297 345.188 109.016C343.953 108.75 342.789 108.398 341.695 107.961C340.617 107.523 339.672 106.992 338.859 106.367C338.047 105.742 337.406 105 336.938 104.141C336.484 103.281 336.258 102.297 336.258 101.188C336.258 100.109 336.484 99.0938 336.938 98.1406C337.406 97.1719 338.086 96.3203 338.977 95.5859C339.883 94.8359 340.984 94.25 342.281 93.8281C343.578 93.3906 345.055 93.1719 346.711 93.1719C348.992 93.1719 350.961 93.5234 352.617 94.2266C354.273 94.9141 355.547 95.8828 356.438 97.1328C357.344 98.3672 357.797 99.7969 357.797 101.422H349.898C349.898 100.781 349.789 100.234 349.57 99.7812C349.367 99.3281 349.031 98.9844 348.562 98.75C348.094 98.5 347.469 98.375 346.688 98.375C346.141 98.375 345.641 98.4766 345.188 98.6797C344.75 98.8828 344.398 99.1641 344.133 99.5234C343.867 99.8828 343.734 100.305 343.734 100.789C343.734 101.133 343.812 101.445 343.969 101.727C344.141 101.992 344.398 102.242 344.742 102.477C345.086 102.695 345.523 102.898 346.055 103.086C346.586 103.258 347.227 103.414 347.977 103.555C349.68 103.867 351.273 104.312 352.758 104.891C354.242 105.469 355.445 106.289 356.367 107.352C357.305 108.414 357.773 109.844 357.773 111.641C357.773 112.766 357.516 113.805 357 114.758C356.484 115.695 355.742 116.523 354.773 117.242C353.805 117.945 352.641 118.492 351.281 118.883C349.922 119.273 348.391 119.469 346.688 119.469C344.266 119.469 342.219 119.039 340.547 118.18C338.875 117.305 337.609 116.211 336.75 114.898C335.906 113.57 335.484 112.227 335.484 110.867H342.844C342.875 111.648 343.062 112.289 343.406 112.789C343.766 113.289 344.242 113.656 344.836 113.891C345.43 114.125 346.117 114.242 346.898 114.242C347.617 114.242 348.211 114.141 348.68 113.938C349.164 113.734 349.531 113.461 349.781 113.117C350.031 112.758 350.156 112.344 350.156 111.875Z" fill="black"/>
<path d="M1134 0H1348C1356.28 0 1363 6.71573 1363 15V148C1363 156.284 1356.28 163 1348 163H1134V0Z" fill="#25738B"/>
<path fill-rule="evenodd" clip-rule="evenodd" d="M1219.98 53C1219.85 53 1219.73 53.0527 1219.64 53.1464C1219.55 53.2402 1219.5 53.3674 1219.5 53.5V109.5C1219.5 109.633 1219.55 109.76 1219.64 109.854C1219.73 109.947 1219.85 110 1219.98 110H1277.02C1277.15 110 1277.27 109.947 1277.36 109.854C1277.45 109.76 1277.5 109.633 1277.5 109.5V64C1277.5 63.8674 1277.45 63.7402 1277.36 63.6464C1277.27 63.5527 1277.15 63.5 1277.02 63.5H1248.5C1247.65 63.5 1246.84 63.1045 1246.29 62.4206L1238.77 53H1219.98ZM1215.58 48.9038C1216.74 47.6848 1218.33 47 1219.98 47H1240.11C1240.97 47 1241.77 47.3955 1242.32 48.0794L1249.85 57.5H1277.02C1278.67 57.5 1280.26 58.1848 1281.42 59.4038C1282.59 60.6228 1283.25 62.2761 1283.25 64V109.5C1283.25 111.224 1282.59 112.877 1281.42 114.096C1280.26 115.315 1278.67 116 1277.02 116H1219.98C1218.33 116 1216.74 115.315 1215.58 114.096C1214.41 112.877 1213.75 111.224 1213.75 109.5V53.5C1213.75 51.7761 1214.41 50.1228 1215.58 48.9038Z" fill="white"/>
<path fill-rule="evenodd" clip-rule="evenodd" d="M1244.16 75.5251C1245.47 76.892 1245.47 79.108 1244.16 80.4749L1238.15 86.75L1244.16 93.0251C1245.47 94.392 1245.47 96.608 1244.16 97.9749C1242.85 99.3417 1240.73 99.3417 1239.42 97.9749L1231.03 89.2249C1229.72 87.858 1229.72 85.642 1231.03 84.2751L1239.42 75.5251C1240.73 74.1583 1242.85 74.1583 1244.16 75.5251Z" fill="white"/>
<path fill-rule="evenodd" clip-rule="evenodd" d="M1252.12 97.9749C1250.81 96.608 1250.81 94.392 1252.12 93.0251L1258.13 86.75L1252.12 80.4749C1250.81 79.108 1250.81 76.892 1252.12 75.5251C1253.43 74.1583 1255.55 74.1583 1256.86 75.5251L1265.25 84.2751C1266.56 85.642 1266.56 87.858 1265.25 89.2249L1256.86 97.9749C1255.55 99.3417 1253.43 99.3417 1252.12 97.9749Z" fill="white"/>
</svg>
